<svg width="352" height="427" viewBox="0 0 352 427" fill="none" xmlns="http://www.w3.org/2000/svg">
<path d="M253.201 208.275C252.446 215.042 252.178 221.862 250.225 224.648C246.201 230.35 246.108 225.134 243.84 228.484C243.073 229.562 242.573 232.045 242.538 233.767C242.992 233.543 243.282 232.794 243.84 232.807C247.701 233.11 251.027 238.576 252.76 241.966C254.481 245.303 251.329 248.102 254.888 251.111C258.411 254.147 267.075 247.169 272.784 250.152C278.471 253.122 279.982 266.498 284.692 267.943C289.413 269.402 291.309 261.544 294.076 263.633C296.809 265.736 292.285 270.374 294.076 274.737C294.89 276.694 296.949 278.455 299.181 280.019C299.368 279.69 299.437 279.349 299.612 279.047C304.728 270.493 306.786 270.493 314.926 268.981C315.996 272.227 317.438 278.022 325.148 277.115C334.753 276.064 334.474 284.342 338.358 291.582C340.149 294.867 344.359 297.232 347.731 296.864C350.208 296.575 350.451 288.1 350.719 286.26C351.928 278.127 345.754 272.884 340.917 267.956C333.742 260.703 324.776 259.166 317.485 252.57C310.31 246.105 302.67 242.518 294.065 239.101C288.658 236.92 278.006 233.753 274.052 228.498C270.366 223.623 280.448 219.957 281.285 215.962C283.029 207.684 268.738 210.194 265.516 210.68C260.33 211.442 256.876 209.366 253.201 208.275Z" fill="#FFC9C9" stroke="black"/>
<path d="M241.724 204.399C240.584 209.327 238.595 215.345 235.7 217.381C232.095 219.878 231.386 214.937 226.316 217.381C223.281 218.879 220.211 224.28 216.513 228.931C216.803 233.307 217.048 238.326 219.106 238.996C222.444 240.179 220.885 235.133 223.792 234.686C226.676 234.213 231.025 240.442 234.874 239.969C238.119 239.588 239.724 235.015 242.526 233.714C242.584 231.98 243.061 229.496 243.817 228.432C246.026 225.081 246.189 230.271 250.212 224.582C252.177 221.809 252.422 214.99 253.19 208.223C250.759 207.487 248.131 208.354 245.084 206.791C244.084 206.278 242.77 205.069 241.724 204.399Z" fill="#FFC9C9" stroke="black"/>
<path d="M216.537 176.464C213.827 177.804 211.292 177.673 208.443 179.828C204.733 182.64 201.28 184.689 197.803 186.595C198.047 187.672 199.338 188.618 199.047 189.525C198.07 192.534 194.186 188.566 192.675 192.416C191.116 196.213 199.861 205.056 197.338 209.287C194.768 213.505 186.43 205.516 185.419 210.246C184.395 214.99 194.873 215.962 197.338 218.433C199.791 220.903 198.175 222.23 201.164 223.715C204.141 225.213 210.804 219.182 214.792 222.269C216.386 223.505 216.304 226.067 216.502 229.05C220.177 224.398 223.246 218.958 226.293 217.526C231.351 215.069 232.073 220.023 235.689 217.526C238.573 215.502 240.562 209.445 241.678 204.517C231.863 198.381 220.409 187.659 216.537 176.464Z" fill="#89FFB1" stroke="black"/>
<path d="M185.034 131.236C183.185 135.034 182.29 140.881 179.941 141.341C175.278 142.261 178.778 135.415 173.534 135.073C170.929 134.929 167.103 135.664 163.323 138.003C161.812 138.949 161.23 141.446 159.916 142.839C162.509 142.668 165.545 141.591 166.324 143.325C167.394 145.769 162.987 144.626 163.719 148.174C164.51 151.695 172.557 155.821 175.638 156.846C178.79 157.818 177.476 154.087 180.732 156.846C183.999 159.618 182.918 173.534 186.278 177.068C189.592 180.616 192.337 177.344 194.756 179.473C196.488 181.01 197.151 184.032 197.779 186.687C201.245 184.794 204.722 182.745 208.408 179.92C211.234 177.791 213.803 177.883 216.513 176.569C216.443 176.372 216.152 176.254 216.083 176.083C212.931 166.267 209.92 154.862 204.57 146.242C200.896 140.316 192.767 137.504 187.558 133.733C186.848 133.089 185.883 131.854 185.034 131.236Z" fill="#FFC9C9" stroke="black"/>
<path d="M137.322 87.9275C131.113 91.0154 124.636 94.1295 119.845 93.6959C109.518 92.7235 105.728 83.0788 98.9597 82.6058C92.2268 82.159 87.8543 82.0934 82.7493 88.3742C80.2491 91.4621 80.4817 97.9532 79.7839 103.787C81.9585 104.365 84.3773 104.694 85.3076 106.192C86.703 108.347 84.0633 110.384 85.3076 112.407C86.5519 114.483 90.0289 115.534 92.5407 115.35C95.0758 115.101 95.25 111.5 98.9363 111.5C102.599 111.5 108.577 116.783 111.74 119.673C114.891 122.604 114.251 126.02 118.135 127.859C122.019 129.673 129.671 128.043 133.473 126.887C137.253 125.757 137.927 122.787 140.695 122.577C143.451 122.328 147.672 123.024 149.184 125.508C150.742 127.952 147.951 131.039 149.184 134.193C150.428 137.281 154.23 140.855 157.312 142.353C158.161 142.786 158.812 142.905 159.87 142.839C161.196 141.446 161.777 138.95 163.289 138.003C167.068 135.717 170.906 134.942 173.511 135.073C178.72 135.389 175.232 142.221 179.918 141.341C182.302 140.868 183.139 135.021 185.011 131.236C174.825 123.431 160.417 109.91 165.406 94.655C161.231 92.2767 156.731 89.2283 154.347 89.8065C147.393 91.5278 155.893 94.6156 149.242 95.5617C146.439 96.0347 142.171 90.8577 137.322 87.9275Z" fill="#89FFB1" stroke="black"/>
<path d="M111.332 17.1298C112.042 19.8104 113.739 23.3187 110.902 22.4383C109.053 21.8733 106.541 18.6146 104.495 19.0613C102.471 19.4949 98.355 26.0649 101.518 27.7468C105.053 29.5732 102.82 32.3195 102.355 35.4336C97.9595 32.9239 98.0524 27.6942 91.7148 30.1514C87.7844 31.6756 86.7147 31.4523 83.6215 27.7337C81.7842 25.4999 79.2256 18.8643 78.5162 28.233C78.1325 33.7255 77.0512 35.8804 73.8301 39.2967C71.0392 42.2532 71.2718 51.7533 70.0276 50.8204C66.0622 48.061 65.946 44.7235 64.9227 43.6066C64.3645 42.9759 63.8293 42.6605 63.2363 42.1744C62.0269 46.6682 60.4105 51.3854 60.6315 55.6427C61.0617 61.871 67.888 67.6262 66.1786 72.0281C64.4692 76.4036 58.4221 72.3434 57.236 76.3511C56.015 80.3456 60.9803 86.3768 63.6316 88.3741C66.2713 90.3976 67.19 87.7171 70.0506 89.8195C72.8648 91.9219 74.33 100.161 77.272 102.828C78.1674 103.643 78.8422 103.524 79.8655 103.8C80.5399 97.9662 80.319 91.4882 82.8191 88.3872C87.9125 82.0801 92.2729 82.1721 99.0175 82.632C105.762 83.105 109.588 92.7496 119.903 93.7088C124.752 94.1425 131.148 91.0152 137.392 87.9405C130.682 83.8277 123.298 81.0947 120.775 77.3367C116.414 70.9375 117.74 70.2543 118.17 65.8261C118.647 61.3849 126.717 56.5099 124.577 52.8176C122.426 49.1385 116.484 55.9581 114.356 53.79C112.251 51.5957 113.507 50.0846 114.356 45.6039C114.821 43.3701 117.1 41.1888 119.042 38.3901C120.973 35.6175 122.426 31.991 121.612 27.7731C120.787 23.5158 116.182 20.3228 111.332 17.1298Z" fill="#89FFB1" stroke="black"/>
<path d="M154.8 181.326C154.649 182.797 155.044 183.599 154.381 185.149C152.858 188.697 148.486 191.995 145.45 195.753C147.09 197.382 149.183 198.815 150.125 200.602C153.16 206.199 154.963 205.188 159.51 208.775C164.742 212.914 167.51 220.233 172.289 225.147C176.604 229.536 182.022 230.758 186.348 234.739C190.697 238.76 186.802 239.364 193.14 237.656C196.21 236.828 198.861 238.629 201.675 239.588C206.094 241.086 209.408 239.627 212.303 242.938C214.722 239.01 215.466 235.514 217.408 231.861C217.199 227.762 217.118 223.991 214.827 222.243C210.85 219.168 204.187 225.186 201.186 223.689C198.221 222.217 199.814 220.863 197.372 218.406C194.895 215.936 184.43 214.911 185.465 210.22C186.476 205.529 194.849 213.505 197.372 209.261C199.954 205.03 191.174 196.187 192.709 192.402C194.221 188.605 198.117 192.534 199.093 189.472C199.291 188.934 198.303 188.29 198.233 187.567C197.198 187.646 196.803 188.539 195.651 188.539C189.93 188.539 183.685 188.185 180.743 190.458C174.906 195.03 178.708 203.913 173.51 203.926C168.336 203.952 169.673 193.138 164.591 187.593C162.335 185.07 158.754 183.283 154.8 181.326Z" fill="#FFF7AC" stroke="black"/>
<path d="M154.801 181.325C158.743 183.309 162.347 185.083 164.626 187.554C169.685 193.099 168.359 203.952 173.557 203.913C178.755 203.886 174.988 195.004 180.802 190.444C183.744 188.158 189.989 188.526 195.721 188.526C196.791 188.526 197.21 187.606 198.303 187.554C198.024 184.637 196.861 181.128 194.873 179.407C192.431 177.226 189.698 180.497 186.384 176.963C183.046 173.441 184.139 159.539 180.849 156.754C177.581 154.021 178.848 157.726 175.755 156.754C173.673 156.084 170.499 153.377 167.638 150.999C165.964 153.048 162.475 153.469 162.091 155.322C161.057 160.761 167.638 161.497 166.406 164.927C165.127 168.356 159.429 164.112 156.58 167.831C154.312 170.721 155.324 176.069 154.801 181.325Z" fill="#FFF7AC" stroke="black"/>
<path d="M121.984 57.5744C120.112 60.2812 118.449 63.0012 118.158 65.7474C117.705 70.1755 116.344 70.8456 120.751 77.271C125.089 83.6833 142.625 96.5604 149.253 95.5749C155.94 94.5763 147.451 91.5147 154.381 89.8065C156.754 89.202 161.277 92.2242 165.452 94.655C165.754 93.6958 165.371 92.7498 165.871 91.7248C170.394 97.4538 175.325 84.4848 167.568 82.1459C167.068 81.962 161.998 74.0518 162.021 72.5144C164.649 73.1583 163.649 67.587 165.033 66.273C166.963 64.3809 170.382 64.8538 172.685 64.3414C164.103 69.3477 177.86 64.3283 179.511 63.3691C181.999 61.9763 184.395 60.2286 186.721 58.5204C187.314 58.1262 188.581 57.3642 189.686 56.5889C189.081 55.5115 189.244 53.3828 188.441 52.7521C184.197 49.3751 179.383 54.2895 176.534 52.7521C173.673 51.2279 172.22 49.4934 171.859 46.5238C171.51 43.5148 176.115 40.5978 175.673 37.3653C175.243 34.1329 169.662 37.1682 170.138 30.1515C170.371 26.8271 176.185 23.9627 180.348 20.0601C178.104 19.7711 176.046 19.9681 173.545 19.1009C173.232 18.9695 172.301 17.9446 171.847 17.6423C171.126 19.7053 171.661 23.1611 170.15 23.897C166.173 25.9337 163.079 17.8001 159.928 18.6279C156.777 19.4031 154.963 21.6894 154.416 25.8547C153.846 30.0201 162.359 34.8031 159.928 40.2955C157.533 45.8274 146.707 42.3059 142.055 45.5778C137.38 48.8759 137.578 55.0253 132.659 57.6139C129.775 59.0855 125.717 58.0343 121.984 57.5744Z" fill="#89FFB1" stroke="black"/>
<path d="M121.984 57.5742C125.717 58.0078 129.764 59.0853 132.636 57.5742C137.532 54.9857 137.357 48.8099 142.043 45.5381C146.718 42.2531 157.498 45.7615 159.928 40.2559C162.359 34.7634 153.835 29.9805 154.393 25.8152C154.963 21.6761 156.777 19.403 159.928 18.5883C163.08 17.7737 166.138 25.9072 170.115 23.8706C171.673 23.1084 171.115 19.6395 171.824 17.6028C167.01 14.7514 156.847 5.34335 162.894 1.26999C156.87 -0.162252 151.195 5.01482 145.021 4.60749C141.195 4.33155 136.229 3.34611 133.113 6.52596C130.752 8.93055 127.74 15.1325 123.717 12.7936C122.182 11.9001 115.74 9.73199 113.077 9.42977C112.658 10.8357 112.216 11.7293 111.379 14.712C111.274 15.185 111.088 15.921 111.379 17.1035C116.24 20.2571 120.821 23.4895 121.589 27.7074C122.438 31.9253 120.937 35.5519 119.019 38.3113C117.077 41.0706 114.74 43.2781 114.333 45.5381C113.472 50.0188 112.216 51.5299 114.333 53.7243C116.461 55.9186 122.403 49.0728 124.554 52.7519C125.368 54.171 123.124 55.9317 121.984 57.5742Z" fill="#89FFB1" stroke="black"/>
<path d="M264.283 250.599C264.563 252.346 265.248 255.079 264.714 256.354C262.69 261.176 258.527 256.866 257.469 262.622C256.946 265.486 260.318 268.285 263.446 271.754C266.597 275.21 269.609 279.375 268.563 284.276C268.179 286.129 265.877 287.43 264.737 289.125C265.807 289.02 266.807 287.509 268.156 289.125C269.749 291.056 270.214 294.144 271.121 296.798C272.133 295.839 272.97 293.763 274.087 293.435C277.912 292.37 279.563 297.442 283.029 296.365C286.494 295.274 286.075 286.812 291.122 286.26C292.762 286.063 294.228 288.152 295.821 290.097C296.925 286.615 297.518 282.988 299.216 280.006C296.983 278.416 294.902 276.681 294.111 274.737C292.32 270.348 296.844 265.762 294.111 263.607C291.39 261.531 289.448 269.415 284.739 267.943C280.017 266.498 278.517 253.161 272.808 250.139C270.052 248.693 267.458 249.692 264.283 250.599Z" fill="#FFF7AC" stroke="black"/>
<path d="M217.408 231.822C215.443 235.488 214.722 238.983 212.315 242.912C212.827 243.543 213.524 243.227 214.013 244.357C215.815 248.273 218.757 256.459 223.816 255.881C230.572 255.119 231.351 260.348 228.083 265.972C234.479 261.373 243.456 261.557 246.817 270.335C248.375 274.369 246.27 275.67 246.817 278.994C247.503 283.002 250.992 282.305 253.213 284.289C255.167 286.037 258.317 291.91 261.294 289.151C262.55 287.968 263.655 289.256 264.713 289.151C265.865 287.508 268.156 286.208 268.54 284.289C269.575 279.401 266.527 275.223 263.446 271.767C260.294 268.311 256.934 265.486 257.457 262.635C258.504 256.88 262.702 261.189 264.679 256.367C265.225 255.079 264.563 252.373 264.272 250.612C260.76 251.624 256.748 252.688 254.875 251.072C251.34 248.063 254.503 245.29 252.748 241.94C251.015 238.589 247.689 233.07 243.829 232.781C239.933 232.492 238.689 239.561 234.874 239.995C231.084 240.455 226.723 234.24 223.792 234.699C220.874 235.159 222.455 240.218 219.129 239.009C217.676 238.576 217.559 234.87 217.408 231.822Z" fill="#FFC9C9" stroke="black"/>
<path d="M99.4016 111.487C100.367 114.851 100.669 118.32 100.681 122.564C100.681 123.523 99.576 124.588 99.4016 125.494C103.402 128.004 106.46 131.394 107.914 139.449C108.193 141.236 117.054 168.711 116.403 168.83C121.798 167.949 136.148 185.228 132.601 191.903C136.915 188.894 141.532 191.916 145.393 195.74C148.463 192.061 152.812 188.697 154.324 185.136C157.335 178.133 153.637 171.497 156.463 167.805C159.277 164.139 164.964 168.356 166.278 164.914C167.545 161.497 160.94 160.696 161.975 155.309C162.347 153.482 165.848 153.022 167.522 150.972C166.138 149.829 163.952 149.238 163.696 148.069C162.94 144.508 167.347 145.703 166.289 143.22C165.208 140.789 160.417 143.772 157.347 142.248C154.265 140.737 150.509 137.189 149.23 134.075C147.998 130.947 150.789 127.873 149.23 125.402C147.695 122.932 143.509 122.275 140.73 122.472C137.974 122.722 137.311 125.652 133.52 126.808C129.717 127.965 122.066 129.607 118.17 127.768C114.298 125.954 114.949 122.498 111.774 119.594C108.704 116.835 103.076 111.75 99.4016 111.487ZM111.786 172.141C109.03 174.69 105.483 174.414 102.39 175.991C105.262 178.487 108.786 176.805 111.786 178.895C112.088 176.687 112.088 174.335 111.786 172.141Z" fill="#89FFB1" stroke="black"/>
<path d="M75.1091 98.4788C71.2019 99.254 67.1553 100.358 64.4574 100.91C57.6198 102.303 54.6314 103.13 50.8404 106.205C47.0611 109.254 48.7008 113.669 42.3166 118.228C39.8281 120.002 34.537 120.528 30.4204 121.132C30.7577 124.22 26.2224 131.079 25.7456 133.168C24.6991 137.583 39.8397 131.788 41.5143 130.763C46.2006 127.886 48.9799 122.893 52.1428 118.241C61.0736 105.206 74.7838 109.201 85.3775 117.282C90.4941 121.184 95.4361 122.906 99.4363 125.442C99.6107 124.548 100.716 123.484 100.716 122.525C100.716 118.307 100.413 114.851 99.4363 111.461C99.32 111.461 99.1341 111.461 99.0062 111.461C95.3432 111.461 95.1336 115.022 92.6102 115.298C90.0636 115.534 86.5985 114.444 85.3775 112.354C84.1332 110.318 86.7729 108.255 85.3775 106.1C83.982 103.932 80.2375 105.364 77.2838 102.736C76.307 101.987 75.8766 100.134 75.1091 98.4788Z" fill="#89FFB1" stroke="black"/>
<path d="M52.98 26.2883C50.7938 29.3367 48.375 32.4639 44.8632 33.5151C46.2935 35.5255 46.0726 37.6149 44.8632 39.7435C43.7003 42.0298 40.7582 43.9745 38.0836 45.0651C39.607 47.115 41.2116 49.2567 41.4791 51.2934C42.1652 56.3654 41.4791 61.3323 38.8743 63.8289C36.2927 66.3123 35.1767 63.6449 29.9438 64.788C26.3157 65.6027 20.1173 68.2701 14.617 70.0965C12.6285 76.2066 4.68627 74.8006 1 79.2287L1.41876 81.1603C0.500094 81.5677 2.47685 87.7303 9.5238 91.7642C13.838 94.2213 14.4196 97.0464 10.7914 100.436C0.744292 109.831 16.2682 123.904 24.4315 120.659C29.1178 118.819 30.1994 119.529 30.4087 121.132C34.5369 120.58 39.8628 120.041 42.3397 118.215C48.7122 113.655 47.0609 109.266 50.817 106.179C54.5963 103.117 57.5848 102.276 64.4457 100.896C67.1319 100.384 71.1672 99.2802 75.0977 98.5049C73.5627 95.0754 71.9229 91.2648 70.0041 89.8195C67.1668 87.7171 66.2597 90.3713 63.5851 88.3741C60.9687 86.3505 55.9918 80.3325 57.2012 76.3511C58.4106 72.3303 64.4224 76.4036 66.1434 72.0149C67.8412 67.6262 61.027 61.9104 60.5967 55.6559C60.306 51.3854 61.992 46.6813 63.1898 42.1743C61.0036 40.361 58.7827 39.231 57.2012 36.4322C55.1662 32.6742 56.7593 28.9294 52.98 26.2883Z" fill="#FFF7AC" stroke="black"/>
<path d="M271.086 296.812C272.668 301.542 274.517 306.233 276.633 310.267C279.378 315.575 279.924 320.844 281.308 326.652C282.168 330.371 286.75 334.602 285.575 338.675C284.238 343.379 279.122 340.83 276.657 344.444C275.145 346.638 276.354 349.726 276.191 352.13C275.714 359.344 265.249 362.958 268.516 370.921C270.691 376.111 274.447 377.832 278.75 374.284C283.32 370.487 286.413 364.902 290.238 360.304C294.774 354.85 296.762 354.377 295.774 346.336C293.797 329.911 314.414 339.766 313.252 326.127C312.554 318.046 311.356 312.461 304.321 308.808C299.925 306.535 291.913 304.446 293.227 297.258C293.681 294.801 294.972 292.554 295.797 290.045C294.204 288.1 292.704 286.011 291.146 286.208C286.075 286.747 286.517 295.195 283.029 296.312C279.529 297.403 277.912 292.318 274.087 293.382C272.924 293.776 272.098 295.853 271.086 296.812Z" fill="#FFC9C9" stroke="black"/>
<path d="M180.348 20.0469C176.173 23.9626 170.313 26.8402 170.138 30.1383C169.696 37.1418 175.231 34.1064 175.65 37.352C176.08 40.5844 171.464 43.5015 171.824 46.5105C172.185 49.4802 173.661 51.254 176.51 52.7257C179.383 54.2762 184.22 49.3619 188.43 52.7257C189.29 53.3827 189.116 55.5113 189.721 56.5757C192.732 54.5653 196.302 52.5811 196.942 57.548C199.128 56.615 211.024 50.9781 206.745 60.8987C212.803 62.239 211.629 55.0645 207.594 54.1316C205.908 53.7637 200.628 51.9766 203.768 47.3777C198.5 45.6432 202.198 40.9787 204.628 37.7463C201.779 37.0367 199.489 35.0657 196.954 33.4364C199.117 30.4536 203.721 27.1817 204.186 22.3857C195.442 19.5738 188.209 20.9798 180.348 20.0469Z" fill="#89FFB1" stroke="black"/>
<path d="M14.6167 70.0965C20.117 68.27 26.3385 65.6027 29.9318 64.8011C35.1879 63.6711 36.339 66.3648 38.8857 63.8419C41.4789 61.3454 42.0954 56.3785 41.4674 51.3065C41.1767 49.2304 39.6066 47.1018 38.0716 45.0782C37.3739 45.3804 37.0134 46.5893 36.3739 46.5105C31.4782 46.1031 28.7338 45.4461 23.5823 47.4697C19.4774 49.099 15.4772 44.7629 11.663 43.6197C13.8841 46.4053 10.1399 51.4379 6.58154 53.7373C7.70952 55.4061 9.53499 57.0224 10.8607 58.5466C13.2794 61.4899 15.7446 63.4083 15.9656 67.7182C15.9772 69.1241 14.9655 69.1241 14.6167 70.0965Z" fill="#89FFB1" stroke="black"/>
<path d="M265.528 359.896C262.109 360.198 257.713 362.669 255.713 364.193C251.678 367.399 250.992 364.258 246.782 364.193C242.015 364.153 237.212 369.475 232.317 370.461C227.002 371.551 221.816 370.644 216.537 371.893C207.315 374.126 201.559 360.133 193.535 365.139C188.314 368.424 185.756 372.615 181.197 365.139C178.906 370.171 168.568 376.452 173.511 384.389C175.778 388.042 181.255 389.053 185.011 389.224C193.245 389.434 199.152 398.514 205.908 402.693C212.478 406.805 219.571 407.291 226.328 410.379C232.735 413.336 232.503 422.035 239.131 424.36C243.817 425.99 249.667 426.581 254.458 425.319C252.039 420.116 256.527 416.884 258.295 412.81C260.353 407.975 253.76 401.668 252.748 397.41C251.585 392.535 256.562 383.613 258.295 379.12C260.76 372.655 264.633 365.809 268.517 360.33C267.749 359.87 266.679 359.765 265.528 359.896ZM157.789 420.51C158.51 421.667 159.219 422.731 159.917 423.874C161.684 421.141 160.998 420.077 157.789 420.51Z" fill="#FFF7AC" stroke="black"/>
<path d="M51.3404 272.214C50.3054 269.481 48.2236 267.733 46.7933 265.329C44.1304 260.9 46.2118 256.696 45.5839 251.952C53.6076 262.175 63.9225 249.942 70.2252 243.819C72.5276 241.611 75.702 237.787 79.0162 240.166C81.1791 241.729 82.7027 245.816 85.7727 244.068C84.668 246.775 85.5632 248.391 88.1564 248.523C87.1563 249.495 86.1449 250.375 85.1797 251.295C91.3661 250.98 94.0521 267.352 92.7148 272.279C91.5519 276.511 85.9121 278.863 89.4123 283.829C92.8893 288.757 89.645 301.411 89.3311 307.376C89.1217 311.857 89.4704 321.133 85.5399 323.959C81.8769 326.56 75.8067 321.396 71.7483 321.804C69.6203 325.43 70.3298 335.535 64.0503 334.352C58.0383 333.262 57.9686 335.022 54.9917 328.321C54.1544 329.49 53.3867 330.62 52.5494 331.764C51.5145 330.804 50.7008 329.648 50.0845 328.321C55.3987 327.152 52.0495 323.393 51.8635 318.282C51.6425 311.962 52.445 305.694 52.8287 299.426C53.852 300.359 54.8519 301.253 55.8636 302.199C55.7939 300.018 56.6662 297.758 56.0847 295.59C55.4335 293.29 52.3634 294.078 51.8982 291.332C51.5029 288.836 54.2591 285.419 54.1893 282.568C54.2126 278.757 50.6078 275.775 51.3404 272.214Z" fill="#FFC9C9" stroke="black"/>
<path d="M1.05786 79.3471C5.34882 74.2095 16.5937 78.5325 16.0472 67.8629C15.803 63.553 13.0584 61.6871 10.6048 58.7043C9.29074 57.1538 7.77906 55.4194 6.65108 53.7375C10.2443 51.438 13.8492 46.3004 11.6165 43.5805C15.4307 44.7368 19.6172 48.9021 23.7221 47.3121C28.8387 45.2886 31.234 46.261 36.118 46.6683C39.3042 46.9443 43.2697 42.5161 44.7582 39.691C45.9443 37.5098 46.1071 35.5914 44.6652 33.5679C48.1654 32.5298 50.6886 29.4025 52.8515 26.354C56.6192 28.9952 55.1308 32.4247 57.1775 36.1695C59.1776 39.7304 62.1664 40.6765 64.8758 43.6461C65.9108 44.7893 66.1666 48.2056 70.1319 50.9913C71.3878 51.8716 70.876 42.1481 73.6668 39.1391C76.8531 35.7622 77.8996 33.581 78.3182 28.0754C79.0276 18.6804 81.772 25.3423 83.586 27.5498C86.7141 31.2684 87.8073 31.794 91.7145 30.3092C98.0753 27.8389 98.0521 33.1211 102.436 35.6439C102.901 32.5035 105.041 29.3105 101.506 27.4972C98.3429 25.8678 102.541 19.4294 104.587 18.9695C106.611 18.549 108.82 21.8997 110.646 22.4778C114.751 23.7524 110.925 16.1575 111.355 14.6202C112.169 11.6769 112.518 10.6782 112.96 9.31169C115.623 9.64019 122.309 11.9133 123.833 12.8463C127.868 15.1326 130.612 9.15402 132.973 6.74943C136.124 3.56958 141.09 4.46303 144.904 4.67327C151.09 5.0806 157.009 -0.175261 163.021 1.24384C156.404 5.73767 169.859 17.4978 173.638 18.8249C184.86 22.8457 192.779 18.7724 203.989 22.4647C203.535 27.2739 198.942 30.572 196.791 33.5679C199.326 35.1972 201.838 36.9842 204.71 37.7069C202.256 40.9261 198.547 45.5777 203.838 47.3121C200.686 51.9111 205.826 53.6324 207.501 54.0135C211.478 54.9464 212.606 62.4098 206.559 61.0695C210.838 51.1489 199.326 56.7072 197.128 57.627C196.209 50.7811 188.814 57.0225 186.709 58.5468C184.348 60.2024 181.906 61.766 179.441 63.1588C177.825 64.118 163.894 69.19 172.487 64.1574C170.185 64.6961 167.057 64.3546 165.173 66.2204C163.789 67.5607 164.452 73.04 161.835 72.3962C161.789 74.0255 166.986 82.1722 167.486 82.3299C175.231 84.7082 170.324 97.4144 165.8 91.6985C156.963 109.267 176.755 126.02 187.43 133.694C192.686 137.478 201.105 140.093 204.779 146.032C210.14 154.638 212.955 165.913 216.094 175.728C220.106 188.355 234.758 201.232 245.177 206.633C252.91 210.641 257.004 211.889 265.609 210.588C268.795 210.102 282.97 207.737 281.214 216.067C280.366 220.062 270.342 223.715 274.017 228.59C277.982 233.819 288.483 236.776 293.89 238.97C302.46 242.452 310.205 245.829 317.357 252.307C324.694 258.903 333.672 260.848 340.823 268.18C345.637 273.055 352.033 278.219 350.858 286.366C350.568 288.192 350.23 296.549 347.742 296.812C344.393 297.18 340.23 294.933 338.474 291.648C334.578 284.46 334.846 276.143 325.206 277.181C317.484 278.101 315.938 272.372 314.845 269.113C306.705 270.663 304.902 270.558 299.774 279.152C296.611 284.46 294.297 291.122 293.134 297.364C291.797 304.604 299.902 306.312 304.333 308.638C311.391 312.277 312.67 318.006 313.344 326.022C314.507 339.648 293.669 329.832 295.634 346.283C296.564 354.364 294.68 354.982 290.145 360.395C286.319 365.034 283.354 370.723 278.761 374.521C274.447 378.082 270.83 376.124 268.679 370.907C265.399 362.984 275.575 359.331 276.086 352.091C276.249 349.647 275.214 346.691 276.703 344.536C279.226 340.896 284.087 343.603 285.424 338.938C286.598 334.838 282.04 330.187 281.121 326.468C279.703 320.687 279.284 315.575 276.517 310.28C273.179 303.947 272.703 294.42 268.272 289.046C265.632 285.84 263.771 286.589 261.294 288.928C258.329 291.727 255.271 286.037 253.318 284.289C251.143 282.266 247.515 282.791 246.84 278.771C246.294 275.473 248.213 274.474 246.643 270.427C243.294 261.663 234.514 261.452 228.141 266.025C231.409 260.401 230.34 255.145 223.618 255.894C218.571 256.459 215.734 248.063 213.908 244.147C210.699 237.157 206.85 241.204 201.559 239.456C198.768 238.51 196.105 237.038 193.081 237.84C186.72 239.522 190.813 238.589 186.429 234.555C182.115 230.561 176.592 229.483 172.324 225.042C167.51 220.18 164.696 212.94 159.451 208.788C154.905 205.214 153.148 206.081 150.102 200.483C146.95 194.636 138.799 187.764 132.612 192.1C136.159 185.346 121.693 168.041 116.298 168.908C116.937 168.803 108.401 141.407 108.041 139.633C105.087 123.523 95.366 125.31 85.1095 117.492C74.4926 109.398 60.9917 105.049 52.0726 118.057C48.9096 122.709 46.2931 128.03 41.5487 130.868C39.8974 131.893 24.6175 137.399 25.6757 132.971C26.4199 129.725 37.8506 115.416 24.2335 120.843C16.1283 124.101 0.836931 109.608 10.8841 100.213C14.5006 96.8494 13.8376 94.0506 9.55824 91.6197C2.51129 87.5858 0.453159 81.4758 1.40671 81.0422" stroke="black"/>
</svg>
