<svg width="206" height="124" viewBox="0 0 206 124" fill="none" xmlns="http://www.w3.org/2000/svg">
<path d="M7.35327 1.29932V112.628" stroke="#F0F0F0"/>
<path d="M20.9497 1.29932V112.628" stroke="#F0F0F0"/>
<path d="M34.8237 1.29932V112.628" stroke="#F0F0F0"/>
<path d="M48.4202 1.29932V112.628" stroke="#F0F0F0"/>
<path d="M62.0168 1.29932V112.628" stroke="#F0F0F0"/>
<path d="M75.8906 1.29932V112.628" stroke="#F0F0F0"/>
<path d="M89.4873 1.29932V112.628" stroke="#F0F0F0"/>
<path d="M103.084 1.29932V112.628" stroke="#F0F0F0"/>
<path d="M116.68 1.29932V112.628" stroke="#F0F0F0"/>
<path d="M130.554 1.29932V112.628" stroke="#F0F0F0"/>
<path d="M144.151 1.29932V112.628" stroke="#F0F0F0"/>
<path d="M157.747 1.29932V112.628" stroke="#F0F0F0"/>
<path d="M171.621 1.29932V112.628" stroke="#F0F0F0"/>
<path d="M185.218 1.29932V112.628" stroke="#F0F0F0"/>
<path d="M198.814 1.29932V112.628" stroke="#F0F0F0"/>
<path d="M7.49194 112.927H205.89" stroke="#F0F0F0"/>
<path d="M7.49194 90.781H205.89" stroke="#F0F0F0"/>
<path d="M7.49194 68.635H205.89" stroke="#F0F0F0"/>
<path d="M7.49194 45.8905H205.89" stroke="#F0F0F0"/>
<path d="M7.49194 23.7445H205.89" stroke="#F0F0F0"/>
<path d="M7.49194 1H205.89" stroke="#F0F0F0"/>
<path d="M7.49194 112.927H205.89" stroke="#F0F0F0"/>
<path d="M7.35327 1.29932V112.628" stroke="#F0F0F0"/>
<path d="M169 83C168.204 83 167.442 82.7367 166.879 82.268C166.316 81.7993 166 81.1636 166 80.5006C166 79.8377 166.316 79.2018 166.878 78.7329C167.44 78.264 168.203 78.0003 168.998 78C169.794 77.9997 170.557 78.2627 171.12 78.7311C171.683 79.1996 171.999 79.8352 172 80.4981C172.001 81.1611 171.685 81.797 171.123 82.2662C170.561 82.7354 169.799 82.9993 169.003 83L169 83Z" fill="#602BF8"/>
<path d="M117 75C116.204 75 115.442 74.7367 114.879 74.268C114.316 73.7993 114 73.1636 114 72.5006C114 71.8377 114.316 71.2018 114.878 70.7329C115.44 70.264 116.203 70.0003 116.998 70C117.794 69.9997 118.557 70.2627 119.12 70.7311C119.683 71.1996 119.999 71.8352 120 72.4981C120.001 73.1611 119.685 73.797 119.123 74.2662C118.561 74.7354 117.799 74.9993 117.003 75L117 75Z" fill="#602BF8"/>
</svg>
