<svg width="207" height="124" viewBox="0 0 207 124" fill="none" xmlns="http://www.w3.org/2000/svg">
<path d="M7.35321 1.29932V112.628" stroke="#F0F0F0"/>
<path d="M20.9497 1.29932V112.628" stroke="#F0F0F0"/>
<path d="M34.8237 1.29932V112.628" stroke="#F0F0F0"/>
<path d="M48.4202 1.29932V112.628" stroke="#F0F0F0"/>
<path d="M62.0168 1.29932V112.628" stroke="#F0F0F0"/>
<path d="M75.8907 1.29932V112.628" stroke="#F0F0F0"/>
<path d="M89.4873 1.29932V112.628" stroke="#F0F0F0"/>
<path d="M103.084 1.29932V112.628" stroke="#F0F0F0"/>
<path d="M116.68 1.29932V112.628" stroke="#F0F0F0"/>
<path d="M130.554 1.29932V112.628" stroke="#F0F0F0"/>
<path d="M144.151 1.29932V112.628" stroke="#F0F0F0"/>
<path d="M157.747 1.29932V112.628" stroke="#F0F0F0"/>
<path d="M171.621 1.29932V112.628" stroke="#F0F0F0"/>
<path d="M185.218 1.29932V112.628" stroke="#F0F0F0"/>
<path d="M198.814 1.29932V112.628" stroke="#F0F0F0"/>
<path d="M7.49194 112.927H205.89" stroke="#F0F0F0"/>
<path d="M7.49194 90.781H205.89" stroke="#F0F0F0"/>
<path d="M7.49194 68.635H205.89" stroke="#F0F0F0"/>
<path d="M7.49194 45.8905H205.89" stroke="#F0F0F0"/>
<path d="M7.49194 23.7445H205.89" stroke="#F0F0F0"/>
<path d="M7.49194 1H205.89" stroke="#F0F0F0"/>
<path d="M7.49194 112.927H205.89" stroke="#F0F0F0"/>
<path d="M7.35321 1.29932V112.628" stroke="#F0F0F0"/>
<path d="M7.49194 96.5964C7.49194 96.5964 11.5967 42.2681 14.3333 42.2681C17.0698 42.2681 18.438 44.2275 21.1746 45.8306C23.9111 47.4338 25.2794 45.8306 28.0159 50.2838C30.7524 54.7369 32.1207 62.3963 34.8572 72.5495C37.5937 82.7026 38.962 101.05 41.6985 101.05C44.435 101.05 45.8033 28.0181 48.5398 28.0181C51.2764 28.0181 52.6446 93.9245 55.3812 93.9245C58.1177 93.9245 59.4859 86.4433 62.2225 82.3464C64.959 78.2495 66.3273 79.4964 69.0638 73.4401C71.8003 67.3838 73.1686 52.065 75.9051 52.065C78.6416 52.065 80.0099 92.1433 82.7464 92.1433C85.4829 92.1433 86.8512 42.2681 89.5877 40.4869C92.3242 38.7056 93.6925 38.7056 96.429 38.7056C99.1656 38.7056 100.534 77.0026 103.27 77.0026C106.007 77.0026 107.375 76.4682 110.112 66.3151C112.848 56.1619 114.216 26.2368 116.953 26.2368C119.69 26.2368 121.058 36.0337 123.794 36.0337C126.531 36.0337 127.899 31.5806 130.636 31.5806C133.372 31.5806 134.74 53.8463 137.477 53.8463C140.213 53.8463 141.582 29.7993 144.318 28.0181C147.055 26.2368 148.423 26.2368 151.16 26.2368C153.896 26.2368 155.264 48.5025 158.001 48.5025C160.737 48.5025 162.106 44.94 164.842 44.94C167.579 44.94 168.947 94.8152 171.684 94.8152C174.42 94.8152 175.788 94.8152 178.525 82.3464C181.261 69.8776 182.63 30.69 185.366 30.69C188.103 30.69 189.471 79.6745 192.207 79.6745C194.944 79.6745 196.312 62.7525 199.049 62.7525C201.785 62.7525 205.89 103.721 205.89 103.721" stroke="black" stroke-width="2"/>
<path d="M7.49194 98.8613C7.19762 98.8613 6.91535 98.6092 6.70721 98.1603C6.49906 97.7114 6.38209 97.1026 6.38202 96.4678C6.38195 95.8329 6.49877 95.224 6.70681 94.7749C6.91485 94.3258 7.19706 94.0733 7.49138 94.073C7.7857 94.0727 8.06803 94.3245 8.27628 94.7732C8.48453 95.2218 8.60164 95.8305 8.60186 96.4654C8.60208 97.1002 8.48539 97.7093 8.27746 98.1586C8.06952 98.6079 7.78737 98.8607 7.49305 98.8613H7.49194Z" fill="#602BF8"/>
<path d="M14.1514 44.3942C13.8571 44.3942 13.5748 44.142 13.3667 43.6931C13.1585 43.2443 13.0416 42.6355 13.0415 42.0006C13.0414 41.3657 13.1583 40.7568 13.3663 40.3077C13.5743 39.8586 13.8565 39.6062 14.1509 39.6058C14.4452 39.6055 14.7275 39.8574 14.9358 40.306C15.144 40.7546 15.2611 41.3633 15.2613 41.9982C15.2616 42.6331 15.1449 43.2421 14.9369 43.6914C14.729 44.1408 14.4469 44.3935 14.1525 44.3942H14.1514Z" fill="#602BF8"/>
<path d="M21.0885 47.9855C20.7942 47.9855 20.5119 47.7333 20.3038 47.2844C20.0956 46.8356 19.9787 46.2268 19.9786 45.5919C19.9785 44.957 20.0953 44.3481 20.3034 43.899C20.5114 43.4499 20.7936 43.1975 21.0879 43.1971C21.3823 43.1968 21.6646 43.4487 21.8728 43.8973C22.0811 44.346 22.1982 44.9546 22.1984 45.5895C22.1986 46.2244 22.0819 46.8334 21.874 47.2827C21.6661 47.7321 21.3839 47.9848 21.0896 47.9855H21.0885Z" fill="#602BF8"/>
<path d="M27.748 52.7738C27.4537 52.7738 27.1714 52.5216 26.9632 52.0728C26.7551 51.6239 26.6381 51.0151 26.6381 50.3802C26.638 49.7454 26.7548 49.1364 26.9629 48.6873C27.1709 48.2383 27.4531 47.9858 27.7474 47.9855C28.0417 47.9852 28.3241 48.237 28.5323 48.6857C28.7406 49.1343 28.8577 49.743 28.8579 50.3778C28.8581 51.0127 28.7414 51.6218 28.5335 52.0711C28.3256 52.5204 28.0434 52.7732 27.7491 52.7738H27.748Z" fill="#602BF8"/>
<path d="M34.6851 74.9197C34.3907 74.9197 34.1085 74.6675 33.9003 74.2186C33.6922 73.7698 33.5752 73.161 33.5751 72.5261C33.5751 71.8912 33.6919 71.2823 33.8999 70.8332C34.108 70.3841 34.3902 70.1317 34.6845 70.1313C34.9788 70.131 35.2611 70.3829 35.4694 70.8315C35.6776 71.2802 35.7948 71.8888 35.795 72.5237C35.7952 73.1586 35.6785 73.7676 35.4706 74.217C35.2626 74.6663 34.9805 74.919 34.6862 74.9197H34.6851Z" fill="#602BF8"/>
<path d="M41.622 103.65C41.3277 103.65 41.0454 103.397 40.8373 102.949C40.6291 102.5 40.5122 101.891 40.5121 101.256C40.512 100.621 40.6288 100.012 40.8369 99.5632C41.0449 99.1141 41.3271 98.8616 41.6215 98.8613C41.9158 98.861 42.1981 99.1129 42.4063 99.5615C42.6146 100.01 42.7317 100.619 42.7319 101.254C42.7321 101.889 42.6155 102.498 42.4075 102.947C42.1996 103.396 41.9174 103.649 41.6231 103.65H41.622Z" fill="#602BF8"/>
<path d="M48.2815 30.6278C47.9872 30.6278 47.7049 30.3756 47.4968 29.9268C47.2886 29.4779 47.1716 28.8691 47.1716 28.2342C47.1715 27.5994 47.2883 26.9904 47.4964 26.5413C47.7044 26.0923 47.9866 25.8398 48.2809 25.8395C48.5753 25.8392 48.8576 26.091 49.0658 26.5397C49.2741 26.9883 49.3912 27.597 49.3914 28.2318C49.3916 28.8667 49.2749 29.4758 49.067 29.9251C48.8591 30.3744 48.5769 30.6272 48.2826 30.6278L48.2815 30.6278Z" fill="#602BF8"/>
<path d="M55.2186 96.4672C54.9242 96.4672 54.642 96.215 54.4338 95.7661C54.2257 95.3173 54.1087 94.7085 54.1086 94.0736C54.1086 93.4387 54.2254 92.8298 54.4334 92.3807C54.6415 91.9316 54.9237 91.6792 55.218 91.6788C55.5123 91.6785 55.7947 91.9304 56.0029 92.379C56.2111 92.8276 56.3283 93.4363 56.3285 94.0712C56.3287 94.7061 56.212 95.3151 56.0041 95.7644C55.7961 96.2138 55.514 96.4665 55.2197 96.4672H55.2186Z" fill="#602BF8"/>
<path d="M62.1555 84.4963C61.8612 84.4963 61.5789 84.2442 61.3708 83.7953C61.1626 83.3464 61.0457 82.7376 61.0456 82.1028C61.0455 81.4679 61.1623 80.859 61.3704 80.4099C61.5784 79.9608 61.8606 79.7083 62.155 79.708C62.4493 79.7077 62.7316 79.9595 62.9399 80.4082C63.1481 80.8568 63.2652 81.4655 63.2654 82.1004C63.2657 82.7352 63.149 83.3443 62.941 83.7936C62.7331 84.2429 62.4509 84.4957 62.1566 84.4963H62.1555Z" fill="#602BF8"/>
<path d="M68.815 76.1168C68.5207 76.1168 68.2384 75.8647 68.0303 75.4158C67.8221 74.9669 67.7052 74.3581 67.7051 73.7232C67.705 73.0884 67.8218 72.4794 68.0299 72.0304C68.2379 71.5813 68.5201 71.3288 68.8144 71.3285C69.1088 71.3282 69.3911 71.58 69.5993 72.0287C69.8076 72.4773 69.9247 73.086 69.9249 73.7209C69.9251 74.3557 69.8085 74.9648 69.6005 75.4141C69.3926 75.8634 69.1104 76.1162 68.8161 76.1168H68.815Z" fill="#602BF8"/>
<path d="M75.752 54.5693C75.4577 54.5693 75.1754 54.3172 74.9673 53.8683C74.7591 53.4194 74.6422 52.8106 74.6421 52.1758C74.642 51.5409 74.7588 50.932 74.9669 50.4829C75.1749 50.0338 75.4571 49.7813 75.7515 49.781C76.0458 49.7807 76.3281 50.0325 76.5364 50.4812C76.7446 50.9298 76.8617 51.5385 76.8619 52.1734C76.8621 52.8082 76.7455 53.4173 76.5375 53.8666C76.3296 54.3159 76.0474 54.5687 75.7531 54.5693H75.752Z" fill="#602BF8"/>
<path d="M82.689 94.6715C82.3947 94.6715 82.1124 94.4193 81.9043 93.9705C81.6961 93.5216 81.5792 92.9128 81.5791 92.2779C81.579 91.6431 81.6959 91.0341 81.9039 90.585C82.1119 90.136 82.3941 89.8835 82.6885 89.8832C82.9828 89.8829 83.2651 90.1347 83.4734 90.5834C83.6816 91.032 83.7987 91.6407 83.7989 92.2755C83.7992 92.9104 83.6825 93.5195 83.4745 93.9688C83.2666 94.4181 82.9845 94.6709 82.6901 94.6715H82.689Z" fill="#602BF8"/>
<path d="M89.3486 42.5986C89.0542 42.5986 88.772 42.3465 88.5638 41.8976C88.3557 41.4487 88.2387 40.8399 88.2386 40.2051C88.2386 39.5702 88.3554 38.9613 88.5634 38.5122C88.7715 38.0631 89.0537 37.8106 89.348 37.8103C89.6423 37.81 89.9247 38.0618 90.1329 38.5105C90.3412 38.9591 90.4583 39.5678 90.4585 40.2027C90.4587 40.8375 90.342 41.4466 90.1341 41.8959C89.9262 42.3452 89.644 42.598 89.3497 42.5986H89.3486Z" fill="#602BF8"/>
<path d="M96.2856 40.803C95.9913 40.803 95.709 40.5508 95.5008 40.1019C95.2927 39.6531 95.1757 39.0443 95.1757 38.4094C95.1756 37.7745 95.2924 37.1656 95.5004 36.7165C95.7085 36.2674 95.9907 36.015 96.285 36.0146C96.5793 36.0143 96.8617 36.2662 97.0699 36.7148C97.2782 37.1635 97.3953 37.7721 97.3955 38.407C97.3957 39.0419 97.279 39.6509 97.0711 40.1003C96.8632 40.5496 96.581 40.8023 96.2867 40.803H96.2856Z" fill="#602BF8"/>
<path d="M109.882 68.9343C109.588 68.9343 109.305 68.6822 109.097 68.2333C108.889 67.7844 108.772 67.1756 108.772 66.5408C108.772 65.9059 108.889 65.2969 109.097 64.8479C109.305 64.3988 109.587 64.1463 109.882 64.146C110.176 64.1457 110.458 64.3975 110.666 64.8462C110.875 65.2948 110.992 65.9035 110.992 66.5384C110.992 67.1732 110.876 67.7823 110.668 68.2316C110.46 68.6809 110.178 68.9337 109.883 68.9343H109.882Z" fill="#602BF8"/>
<path d="M116.819 28.8321C116.525 28.8321 116.242 28.58 116.034 28.1311C115.826 27.6823 115.709 27.0734 115.709 26.4386C115.709 25.8037 115.826 25.1948 116.034 24.7457C116.242 24.2966 116.524 24.0441 116.819 24.0438C117.113 24.0435 117.395 24.2954 117.603 24.744C117.812 25.1926 117.929 25.8013 117.929 26.4362C117.929 27.0711 117.813 27.6801 117.605 28.1294C117.397 28.5787 117.115 28.8315 116.82 28.8321L116.819 28.8321Z" fill="#602BF8"/>
<path d="M123.756 38.4088C123.462 38.4088 123.179 38.1566 122.971 37.7078C122.763 37.2589 122.646 36.6501 122.646 36.0152C122.646 35.3804 122.763 34.7714 122.971 34.3224C123.179 33.8733 123.461 33.6208 123.755 33.6205C124.05 33.6202 124.332 33.872 124.54 34.3207C124.749 34.7693 124.866 35.378 124.866 36.0128C124.866 36.6477 124.749 37.2568 124.542 37.7061C124.334 38.1554 124.051 38.4082 123.757 38.4088L123.756 38.4088Z" fill="#602BF8"/>
<path d="M130.416 34.219C130.121 34.219 129.839 33.9668 129.631 33.518C129.423 33.0691 129.306 32.4603 129.306 31.8254C129.306 31.1906 129.422 30.5816 129.63 30.1325C129.838 29.6834 130.121 29.431 130.415 29.4307C130.709 29.4303 130.992 29.6822 131.2 30.1308C131.408 30.5795 131.525 31.1882 131.526 31.823C131.526 32.4579 131.409 33.067 131.201 33.5163C130.993 33.9656 130.711 34.2183 130.417 34.219L130.416 34.219Z" fill="#602BF8"/>
<path d="M137.353 56.365C137.058 56.365 136.776 56.1128 136.568 55.664C136.36 55.2151 136.243 54.6063 136.243 53.9714C136.243 53.3366 136.359 52.7276 136.567 52.2785C136.775 51.8294 137.058 51.577 137.352 51.5767C137.646 51.5763 137.929 51.8282 138.137 52.2768C138.345 52.7255 138.462 53.3342 138.462 53.969C138.463 54.6039 138.346 55.213 138.138 55.6623C137.93 56.1116 137.648 56.3643 137.354 56.365H137.353Z" fill="#602BF8"/>
<path d="M144.29 30.6278C143.995 30.6278 143.713 30.3756 143.505 29.9268C143.297 29.4779 143.18 28.8691 143.18 28.2342C143.18 27.5994 143.296 26.9904 143.504 26.5413C143.713 26.0923 143.995 25.8398 144.289 25.8395C144.583 25.8392 144.866 26.091 145.074 26.5397C145.282 26.9883 145.399 27.597 145.4 28.2318C145.4 28.8667 145.283 29.4758 145.075 29.9251C144.867 30.3744 144.585 30.6272 144.291 30.6278L144.29 30.6278Z" fill="#602BF8"/>
<path d="M150.949 28.8321C150.655 28.8321 150.373 28.58 150.164 28.1311C149.956 27.6823 149.839 27.0734 149.839 26.4386C149.839 25.8037 149.956 25.1948 150.164 24.7457C150.372 24.2966 150.654 24.0441 150.949 24.0438C151.243 24.0435 151.525 24.2954 151.733 24.744C151.942 25.1926 152.059 25.8013 152.059 26.4362C152.059 27.0711 151.943 27.6801 151.735 28.1294C151.527 28.5787 151.245 28.8315 150.95 28.8321L150.949 28.8321Z" fill="#602BF8"/>
<path d="M157.886 50.9781C157.592 50.9781 157.309 50.726 157.101 50.2771C156.893 49.8283 156.776 49.2194 156.776 48.5846C156.776 47.9497 156.893 47.3408 157.101 46.8917C157.309 46.4426 157.591 46.1901 157.885 46.1898C158.18 46.1895 158.462 46.4414 158.67 46.89C158.879 47.3386 158.996 47.9473 158.996 48.5822C158.996 49.2171 158.879 49.8261 158.672 50.2754C158.464 50.7247 158.181 50.9775 157.887 50.9781H157.886Z" fill="#602BF8"/>
<path d="M164.823 47.3868C164.529 47.3868 164.246 47.1347 164.038 46.6858C163.83 46.2369 163.713 45.6281 163.713 44.9933C163.713 44.3584 163.83 43.7495 164.038 43.3004C164.246 42.8513 164.528 42.5988 164.822 42.5985C165.117 42.5982 165.399 42.85 165.607 43.2987C165.816 43.7473 165.933 44.356 165.933 44.9909C165.933 45.6257 165.816 46.2348 165.609 46.6841C165.401 47.1334 165.118 47.3862 164.824 47.3868H164.823Z" fill="#602BF8"/>
<path d="M171.483 97.0657C171.188 97.0657 170.906 96.8135 170.698 96.3646C170.49 95.9158 170.373 95.307 170.373 94.6721C170.373 94.0372 170.489 93.4283 170.697 92.9792C170.906 92.5301 171.188 92.2777 171.482 92.2773C171.776 92.277 172.059 92.5289 172.267 92.9775C172.475 93.4262 172.592 94.0348 172.593 94.6697C172.593 95.3046 172.476 95.9136 172.268 96.363C172.06 96.8123 171.778 97.065 171.484 97.0657H171.483Z" fill="#602BF8"/>
<path d="M178.42 84.4963C178.125 84.4963 177.843 84.2442 177.635 83.7953C177.427 83.3464 177.31 82.7376 177.31 82.1028C177.31 81.4679 177.427 80.859 177.635 80.4099C177.843 79.9608 178.125 79.7083 178.419 79.708C178.713 79.7077 178.996 79.9595 179.204 80.4082C179.412 80.8568 179.529 81.4655 179.53 82.1004C179.53 82.7352 179.413 83.3443 179.205 83.7936C178.997 84.2429 178.715 84.4957 178.421 84.4963H178.42Z" fill="#602BF8"/>
<path d="M185.357 33.022C185.062 33.022 184.78 32.7698 184.572 32.3209C184.364 31.8721 184.247 31.2633 184.247 30.6284C184.247 29.9935 184.363 29.3846 184.572 28.9355C184.78 28.4864 185.062 28.234 185.356 28.2336C185.65 28.2333 185.933 28.4852 186.141 28.9338C186.349 29.3825 186.466 29.9911 186.467 30.626C186.467 31.2609 186.35 31.8699 186.142 32.3192C185.934 32.7686 185.652 33.0213 185.358 33.022L185.357 33.022Z" fill="#602BF8"/>
<path d="M192.016 82.1023C191.722 82.1023 191.439 81.8501 191.231 81.4013C191.023 80.9524 190.906 80.3436 190.906 79.7087C190.906 79.0739 191.023 78.4649 191.231 78.0158C191.439 77.5667 191.721 77.3143 192.015 77.314C192.31 77.3136 192.592 77.5655 192.8 78.0141C193.009 78.4628 193.126 79.0715 193.126 79.7063C193.126 80.3412 193.009 80.9503 192.802 81.3996C192.594 81.8489 192.311 82.1017 192.017 82.1023H192.016Z" fill="#602BF8"/>
<path d="M198.953 65.3431C198.659 65.3431 198.376 65.091 198.168 64.6421C197.96 64.1932 197.843 63.5844 197.843 62.9496C197.843 62.3147 197.96 61.7058 198.168 61.2567C198.376 60.8076 198.658 60.5551 198.953 60.5548C199.247 60.5545 199.529 60.8063 199.737 61.255C199.946 61.7036 200.063 62.3123 200.063 62.9472C200.063 63.582 199.947 64.1911 199.739 64.6404C199.531 65.0897 199.248 65.3425 198.954 65.3431H198.953Z" fill="#602BF8"/>
<path d="M205.89 106.044C205.596 106.044 205.314 105.792 205.105 105.343C204.897 104.894 204.78 104.285 204.78 103.65C204.78 103.015 204.897 102.406 205.105 101.957C205.313 101.508 205.595 101.256 205.89 101.255C206.184 101.255 206.466 101.507 206.674 101.956C206.883 102.404 207 103.013 207 103.648C207 104.283 206.884 104.892 206.676 105.341C206.468 105.79 206.186 106.043 205.891 106.044H205.89Z" fill="#602BF8"/>
</svg>
