<svg width="206" height="124" viewBox="0 0 206 124" fill="none" xmlns="http://www.w3.org/2000/svg">
<path d="M7.35321 1.29932V112.628" stroke="#F0F0F0"/>
<path d="M20.9497 1.29932V112.628" stroke="#F0F0F0"/>
<path d="M34.8237 1.29932V112.628" stroke="#F0F0F0"/>
<path d="M48.4202 1.29932V112.628" stroke="#F0F0F0"/>
<path d="M62.0168 1.29932V112.628" stroke="#F0F0F0"/>
<path d="M75.8907 1.29932V112.628" stroke="#F0F0F0"/>
<path d="M89.4873 1.29932V112.628" stroke="#F0F0F0"/>
<path d="M103.084 1.29932V112.628" stroke="#F0F0F0"/>
<path d="M116.68 1.29932V112.628" stroke="#F0F0F0"/>
<path d="M130.554 1.29932V112.628" stroke="#F0F0F0"/>
<path d="M144.151 1.29932V112.628" stroke="#F0F0F0"/>
<path d="M157.747 1.29932V112.628" stroke="#F0F0F0"/>
<path d="M171.621 1.29932V112.628" stroke="#F0F0F0"/>
<path d="M185.218 1.29932V112.628" stroke="#F0F0F0"/>
<path d="M198.814 1.29932V112.628" stroke="#F0F0F0"/>
<path d="M7.49194 112.927H205.89" stroke="#F0F0F0"/>
<path d="M7.49194 90.781H205.89" stroke="#F0F0F0"/>
<path d="M7.49194 68.635H205.89" stroke="#F0F0F0"/>
<path d="M7.49194 45.8905H205.89" stroke="#F0F0F0"/>
<path d="M7.49194 23.7445H205.89" stroke="#F0F0F0"/>
<path d="M7.49194 1H205.89" stroke="#F0F0F0"/>
<path d="M7.49194 112.927H205.89" stroke="#F0F0F0"/>
<path d="M7.35321 1.29932V112.628" stroke="#F0F0F0"/>
<path d="M172 44C171.204 44 170.442 43.7367 169.879 43.268C169.316 42.7993 169 42.1636 169 41.5006C169 40.8377 169.316 40.2018 169.878 39.7329C170.44 39.264 171.203 39.0003 171.998 39C172.794 38.9997 173.557 39.2627 174.12 39.7311C174.683 40.1996 174.999 40.8352 175 41.4981C175.001 42.1611 174.685 42.797 174.123 43.2662C173.561 43.7354 172.799 43.9993 172.003 44L172 44Z" fill="#602BF8"/>
<path d="M117 57.5C116.204 57.5 115.442 57.2367 114.879 56.768C114.316 56.2993 114 55.6636 114 55.0006C114 54.3377 114.316 53.7018 114.878 53.2329C115.44 52.764 116.203 52.5003 116.998 52.5C117.794 52.4997 118.557 52.7627 119.12 53.2311C119.683 53.6996 119.999 54.3352 120 54.9981C120.001 55.6611 119.685 56.297 119.123 56.7662C118.561 57.2354 117.799 57.4993 117.003 57.5L117 57.5Z" fill="#602BF8"/>
</svg>
