<svg width="405" height="124" viewBox="0 0 405 124" fill="none" xmlns="http://www.w3.org/2000/svg">
<path d="M7.35321 1.29932V112.628" stroke="#F0F0F0"/>
<path d="M20.9497 1.29932V112.628" stroke="#F0F0F0"/>
<path d="M34.8237 1.29932V112.628" stroke="#F0F0F0"/>
<path d="M48.4202 1.29932V112.628" stroke="#F0F0F0"/>
<path d="M62.0168 1.29932V112.628" stroke="#F0F0F0"/>
<path d="M75.8907 1.29932V112.628" stroke="#F0F0F0"/>
<path d="M89.4873 1.29932V112.628" stroke="#F0F0F0"/>
<path d="M103.084 1.29932V112.628" stroke="#F0F0F0"/>
<path d="M116.68 1.29932V112.628" stroke="#F0F0F0"/>
<path d="M130.554 1.29932V112.628" stroke="#F0F0F0"/>
<path d="M144.151 1.29932V112.628" stroke="#F0F0F0"/>
<path d="M157.747 1.29932V112.628" stroke="#F0F0F0"/>
<path d="M171.621 1.29932V112.628" stroke="#F0F0F0"/>
<path d="M185.218 1.29932V112.628" stroke="#F0F0F0"/>
<path d="M198.814 1.29932V112.628" stroke="#F0F0F0"/>
<path d="M7.49194 112.927H205.89" stroke="#F0F0F0"/>
<path d="M7.49194 90.781H205.89" stroke="#F0F0F0"/>
<path d="M7.49194 68.635H205.89" stroke="#F0F0F0"/>
<path d="M7.49194 45.8905H205.89" stroke="#F0F0F0"/>
<path d="M104 87C103.204 87 102.442 86.7367 101.879 86.268C101.316 85.7993 101 85.1636 101 84.5006C101 83.8377 101.316 83.2018 101.878 82.7329C102.44 82.264 103.203 82.0003 103.998 82C104.794 81.9997 105.557 82.2627 106.12 82.7311C106.683 83.1996 106.999 83.8352 107 84.4981C107.001 85.1611 106.685 85.797 106.123 86.2662C105.561 86.7354 104.799 86.9993 104.003 87L104 87Z" fill="#602BF8"/>
<path d="M7.49194 23.7445H205.89" stroke="#F0F0F0"/>
<path d="M7.49194 1H205.89" stroke="#F0F0F0"/>
<path d="M7.49194 112.927H205.89" stroke="#F0F0F0"/>
<path d="M7.35321 1.29932V112.628" stroke="#F0F0F0"/>
<path d="M169 33C168.204 33 167.442 32.7367 166.879 32.268C166.316 31.7993 166 31.1636 166 30.5006C166 29.8377 166.316 29.2018 166.878 28.7329C167.44 28.264 168.203 28.0003 168.998 28C169.794 27.9997 170.557 28.2627 171.12 28.7311C171.683 29.1996 171.999 29.8352 172 30.4981C172.001 31.1611 171.685 31.797 171.123 32.2662C170.561 32.7354 169.799 32.9993 169.003 33L169 33Z" fill="#602BF8"/>
<path d="M147 73C146.204 73 145.442 72.7367 144.879 72.268C144.316 71.7993 144 71.1636 144 70.5006C144 69.8377 144.316 69.2019 144.878 68.7329C145.44 68.264 146.203 68.0003 146.998 68C147.794 67.9997 148.557 68.2627 149.12 68.7311C149.683 69.1996 149.999 69.8352 150 70.4981C150.001 71.1611 149.685 71.7971 149.123 72.2662C148.561 72.7354 147.799 72.9993 147.003 73L147 73Z" fill="#602BF8"/>
<path d="M169 33C168.204 33 167.442 32.7367 166.879 32.268C166.316 31.7993 166 31.1636 166 30.5006C166 29.8377 166.316 29.2018 166.878 28.7329C167.44 28.264 168.203 28.0003 168.998 28C169.794 27.9997 170.557 28.2627 171.12 28.7311C171.683 29.1996 171.999 29.8352 172 30.4981C172.001 31.1611 171.685 31.797 171.123 32.2662C170.561 32.7354 169.799 32.9993 169.003 33L169 33Z" fill="#602BF8"/>
<path d="M38 79C37.2045 79 36.4415 78.7367 35.879 78.268C35.3164 77.7993 35.0002 77.1636 35 76.5006C34.9998 75.8377 35.3156 75.2018 35.8779 74.7329C36.4402 74.264 37.203 74.0003 37.9985 74C38.794 73.9997 39.5571 74.2627 40.12 74.7311C40.6829 75.1996 40.9994 75.8352 41 76.4981C41.0006 77.1611 40.6852 77.797 40.1232 78.2662C39.5611 78.7354 38.7985 78.9993 38.003 79L38 79Z" fill="#602BF8"/>
<line x1="354.883" y1="58.5138" x2="404.883" y2="46.5138" stroke="black"/>
<path d="M76 51C75.2045 51 74.4415 50.7367 73.879 50.268C73.3164 49.7993 73.0002 49.1636 73 48.5006C72.9998 47.8377 73.3156 47.2018 73.8779 46.7329C74.4402 46.264 75.203 46.0003 75.9985 46C76.794 45.9997 77.5571 46.2627 78.12 46.7311C78.6829 47.1996 78.9994 47.8352 79 48.4981C79.0006 49.1611 78.6852 49.797 78.1232 50.2662C77.5611 50.7354 76.7985 50.9993 76.003 51L76 51Z" fill="#602BF8"/>
<line x1="39.7038" y1="74.5972" x2="73.7038" y2="49.5972" stroke="black"/>
<line x1="78.4044" y1="49.7059" x2="102.404" y2="82.7059" stroke="black"/>
<line x1="148.558" y1="68.7666" x2="167.558" y2="32.7666" stroke="black"/>
</svg>
