<svg width="28" height="28" viewBox="0 0 28 28" fill="none" xmlns="http://www.w3.org/2000/svg">
<path fill-rule="evenodd" clip-rule="evenodd" d="M4.1117 10.333C4.52509 5.31796 8.71593 1.45834 13.748 1.45834H14.2519C19.284 1.45834 23.4748 5.31796 23.8882 10.333C24.1103 13.027 23.2781 15.702 21.567 17.7947L15.9751 24.6334C14.9543 25.8819 13.0456 25.8819 12.0248 24.6334L6.43291 17.7947C4.7218 15.7021 3.88964 13.027 4.1117 10.333ZM13.748 3.20834C9.62669 3.20834 6.19435 6.3694 5.85579 10.4768C5.67097 12.7189 6.36356 14.9453 7.78766 16.6869L13.3796 23.5257C13.7002 23.9178 14.2997 23.9178 14.6203 23.5257L20.2122 16.6869C21.6363 14.9453 22.3289 12.7189 22.1441 10.4768C21.8055 6.3694 18.3732 3.20834 14.2519 3.20834H13.748Z" fill="white"/>
<path d="M15.1666 18.6667C15.1666 19.311 14.6443 19.8333 13.9999 19.8333C13.3556 19.8333 12.8333 19.311 12.8333 18.6667C12.8333 18.0223 13.3556 17.5 13.9999 17.5C14.6443 17.5 15.1666 18.0223 15.1666 18.6667Z" fill="white"/>
<path fill-rule="evenodd" clip-rule="evenodd" d="M13.9999 9.04168C12.8954 9.04168 11.9583 9.96967 11.9583 11.1667C11.9583 11.6499 11.5665 12.0417 11.0833 12.0417C10.6 12.0417 10.2083 11.6499 10.2083 11.1667C10.2083 9.04997 11.8828 7.29168 13.9999 7.29168C16.1171 7.29168 17.7916 9.04997 17.7916 11.1667C17.7916 12.8362 16.7553 14.274 15.281 14.8147C15.1358 14.868 15.0177 14.9494 14.9464 15.0288C14.8797 15.1031 14.8749 15.1484 14.8749 15.1667C14.8749 15.6499 14.4832 16.0417 13.9999 16.0417C13.5167 16.0417 13.1249 15.6499 13.1249 15.1667C13.1249 14.0891 13.9923 13.4234 14.6784 13.1717C15.4618 12.8844 16.0416 12.1038 16.0416 11.1667C16.0416 9.96967 15.1045 9.04168 13.9999 9.04168Z" fill="white"/>
</svg>
