<svg width="28" height="27" viewBox="0 0 28 27" fill="none" xmlns="http://www.w3.org/2000/svg">
<path fill-rule="evenodd" clip-rule="evenodd" d="M10.4175 5.02906C8.93439 4.86922 7.39917 4.86922 5.91608 5.02906C5.55571 5.0679 5.27151 5.34306 5.23097 5.67725C5.05387 7.13743 5.05387 8.61255 5.23097 10.0727C5.27151 10.4069 5.55571 10.6821 5.91608 10.7209C7.39917 10.8808 8.93439 10.8808 10.4175 10.7209C10.7778 10.6821 11.062 10.4069 11.1026 10.0727C11.2797 8.61255 11.2797 7.13743 11.1026 5.67725C11.062 5.34306 10.7778 5.0679 10.4175 5.02906ZM5.7217 3.352C7.33397 3.17824 8.99958 3.17824 10.6119 3.352C11.7678 3.47658 12.704 4.35407 12.8407 5.48122C13.0336 7.07164 13.0336 8.67833 12.8407 10.2688C12.704 11.3959 11.7678 12.2734 10.6119 12.398C8.99958 12.5717 7.33397 12.5717 5.7217 12.398C4.56572 12.2734 3.62954 11.3959 3.49282 10.2688C3.29992 8.67833 3.29992 7.07164 3.49282 5.48122C3.62954 4.35407 4.56572 3.47658 5.7217 3.352Z" fill="white"/>
<path fill-rule="evenodd" clip-rule="evenodd" d="M10.4175 16.2791C8.93439 16.1192 7.39917 16.1192 5.91608 16.2791C5.55571 16.3179 5.27151 16.5931 5.23097 16.9272C5.05387 18.3874 5.05387 19.8625 5.23097 21.3227C5.27151 21.6569 5.55571 21.9321 5.91608 21.9709C7.39917 22.1308 8.93439 22.1308 10.4175 21.9709C10.7778 21.9321 11.062 21.6569 11.1026 21.3227C11.2797 19.8625 11.2797 18.3874 11.1026 16.9272C11.062 16.5931 10.7778 16.3179 10.4175 16.2791ZM5.7217 14.602C7.33397 14.4282 8.99958 14.4282 10.6119 14.602C11.7678 14.7266 12.704 15.6041 12.8407 16.7312C13.0336 18.3216 13.0336 19.9283 12.8407 21.5188C12.704 22.6459 11.7678 23.5234 10.6119 23.648C8.99958 23.8217 7.33397 23.8217 5.7217 23.648C4.56572 23.5234 3.62954 22.6459 3.49282 21.5188C3.29992 19.9283 3.29992 18.3216 3.49282 16.7312C3.62954 15.6041 4.56572 14.7266 5.7217 14.602Z" fill="white"/>
<path fill-rule="evenodd" clip-rule="evenodd" d="M22.0841 5.02906C20.6011 4.86922 19.0658 4.86922 17.5827 5.02906C17.2224 5.0679 16.9382 5.34306 16.8976 5.67725C16.7205 7.13743 16.7205 8.61255 16.8976 10.0727C16.9382 10.4069 17.2224 10.6821 17.5827 10.7209C19.0658 10.8808 20.6011 10.8808 22.0841 10.7209C22.4445 10.6821 22.7287 10.4069 22.7692 10.0727C22.9464 8.61255 22.9464 7.13743 22.7692 5.67725C22.7287 5.34306 22.4445 5.0679 22.0841 5.02906ZM17.3884 3.352C19.0006 3.17824 20.6663 3.17824 22.2785 3.352C23.4345 3.47658 24.3707 4.35407 24.5074 5.48122C24.7003 7.07164 24.7003 8.67833 24.5074 10.2688C24.3707 11.3959 23.4345 12.2734 22.2785 12.398C20.6663 12.5717 19.0006 12.5717 17.3884 12.398C16.2324 12.2734 15.2962 11.3959 15.1595 10.2688C14.9666 8.67833 14.9666 7.07164 15.1595 5.48122C15.2962 4.35407 16.2324 3.47658 17.3884 3.352Z" fill="white"/>
<path fill-rule="evenodd" clip-rule="evenodd" d="M22.0841 16.2791C20.6011 16.1192 19.0658 16.1192 17.5827 16.2791C17.2224 16.3179 16.9382 16.5931 16.8976 16.9272C16.7205 18.3874 16.7205 19.8625 16.8976 21.3227C16.9382 21.6569 17.2224 21.9321 17.5827 21.9709C19.0658 22.1308 20.6011 22.1308 22.0841 21.9709C22.4445 21.9321 22.7287 21.6569 22.7692 21.3227C22.9464 19.8625 22.9464 18.3874 22.7692 16.9272C22.7287 16.5931 22.4445 16.3179 22.0841 16.2791ZM17.3884 14.602C19.0006 14.4282 20.6663 14.4282 22.2785 14.602C23.4345 14.7266 24.3707 15.6041 24.5074 16.7312C24.7003 18.3216 24.7003 19.9283 24.5074 21.5188C24.3707 22.6459 23.4345 23.5234 22.2785 23.648C20.6663 23.8217 19.0006 23.8217 17.3884 23.648C16.2324 23.5234 15.2962 22.6459 15.1595 21.5188C14.9666 19.9283 14.9666 18.3216 15.1595 16.7312C15.2962 15.6041 16.2324 14.7266 17.3884 14.602Z" fill="white"/>
</svg>
