<svg width="29" height="29" viewBox="0 0 29 29" fill="none" xmlns="http://www.w3.org/2000/svg">
<path fill-rule="evenodd" clip-rule="evenodd" d="M19.8798 5.53741C20.5472 6.01903 21.0184 6.75762 21.1475 7.61614C21.1927 7.91699 21.2335 8.21835 21.2697 8.52011C21.5498 11.123 21.5373 14.1248 21.1475 16.7172C20.9318 18.1516 19.7611 19.2512 18.3161 19.3768L16.8058 19.5081C13.6568 19.7818 10.4899 19.7818 7.34087 19.5081L5.83063 19.3768C4.38556 19.2512 3.21489 18.1516 2.9992 16.7172C2.60937 14.1248 2.59688 11.1228 2.87703 8.51995C2.91324 8.21824 2.95396 7.91694 2.9992 7.61614C3.12812 6.75881 3.59819 6.02107 4.2641 5.53941L4.26334 5.53267L4.31059 5.50642C4.4831 5.38635 4.66818 5.28322 4.86341 5.1993L9.27936 2.746C11.016 1.7812 13.1276 1.7812 14.8643 2.746L19.27 5.19363C19.4746 5.28046 19.6682 5.38835 19.8479 5.51471L19.8803 5.53271L19.8798 5.53741ZM19.0389 6.78117L14.1358 4.05723C12.8522 3.34412 11.2914 3.34412 10.0078 4.05723L5.11616 6.77482C4.78268 7.02644 4.54808 7.40319 4.48252 7.8392C4.47082 7.91697 4.45945 7.99477 4.44839 8.07261L10.0093 11.162C11.2929 11.8751 12.8537 11.8751 14.1373 11.162L19.6983 8.07257C19.6872 7.99475 19.6759 7.91695 19.6642 7.8392C19.5991 7.40684 19.3679 7.03275 19.0389 6.78117ZM19.7788 15.6472C20.0172 13.6682 20.0516 11.6708 19.8818 9.68655L14.8658 12.4733C13.1291 13.4381 11.0175 13.4381 9.28086 12.4733L4.26483 9.68659C4.09511 11.6709 4.12945 13.6682 4.36785 15.6472C4.40191 15.9299 4.44013 16.2122 4.48252 16.4941C4.50651 16.6537 4.55315 16.8053 4.61899 16.9458C4.8621 17.4644 5.36697 17.8308 5.96053 17.8824L7.47077 18.0137C10.5334 18.28 13.6133 18.28 16.6759 18.0137L18.1861 17.8825C18.6576 17.8415 19.0731 17.6019 19.3459 17.2451C19.5096 17.0311 19.6219 16.7749 19.6642 16.4941C19.7065 16.2122 19.7448 15.9299 19.7788 15.6472Z" fill="white"/>
</svg>
