<svg width="28" height="28" viewBox="0 0 28 28" fill="none" xmlns="http://www.w3.org/2000/svg">
<path fill-rule="evenodd" clip-rule="evenodd" d="M10.4175 5.21532C8.93439 5.04956 7.39917 5.04956 5.91608 5.21532C5.55571 5.2556 5.27151 5.54095 5.23097 5.88752C5.05387 7.40178 5.05387 8.93153 5.23097 10.4458C5.27151 10.7924 5.55571 11.0777 5.91608 11.118C7.39917 11.2838 8.93439 11.2838 10.4175 11.118C10.7778 11.0777 11.062 10.7924 11.1026 10.4458C11.2797 8.93153 11.2797 7.40178 11.1026 5.88752C11.062 5.54095 10.7778 5.2556 10.4175 5.21532ZM5.7217 3.47615C7.33397 3.29595 8.99958 3.29595 10.6119 3.47615C11.7678 3.60535 12.704 4.51533 12.8407 5.68423C13.0336 7.33356 13.0336 8.99976 12.8407 10.6491C12.704 11.818 11.7678 12.728 10.6119 12.8572C8.99958 13.0374 7.33397 13.0374 5.7217 12.8572C4.56572 12.728 3.62954 11.818 3.49282 10.6491C3.29992 8.99976 3.29992 7.33356 3.49282 5.68423C3.62954 4.51533 4.56572 3.60535 5.7217 3.47615Z" fill="white"/>
<path fill-rule="evenodd" clip-rule="evenodd" d="M10.4175 16.882C8.93439 16.7162 7.39917 16.7162 5.91608 16.882C5.55571 16.9223 5.27151 17.2076 5.23097 17.5542C5.05387 19.0685 5.05387 20.5982 5.23097 22.1125C5.27151 22.459 5.55571 22.7444 5.91608 22.7847C7.39917 22.9504 8.93439 22.9504 10.4175 22.7847C10.7778 22.7444 11.062 22.459 11.1026 22.1125C11.2797 20.5982 11.2797 19.0685 11.1026 17.5542C11.062 17.2076 10.7778 16.9223 10.4175 16.882ZM5.7217 15.1428C7.33397 14.9626 8.99958 14.9626 10.6119 15.1428C11.7678 15.272 12.704 16.182 12.8407 17.3509C13.0336 19.0002 13.0336 20.6664 12.8407 22.3158C12.704 23.4846 11.7678 24.3946 10.6119 24.5238C8.99958 24.704 7.33397 24.704 5.7217 24.5238C4.56572 24.3946 3.62954 23.4846 3.49282 22.3158C3.29992 20.6664 3.29992 19.0002 3.49282 17.3509C3.62954 16.182 4.56572 15.272 5.7217 15.1428Z" fill="white"/>
<path fill-rule="evenodd" clip-rule="evenodd" d="M22.0841 5.21532C20.6011 5.04956 19.0658 5.04956 17.5827 5.21532C17.2224 5.2556 16.9382 5.54095 16.8976 5.88752C16.7205 7.40178 16.7205 8.93153 16.8976 10.4458C16.9382 10.7924 17.2224 11.0777 17.5827 11.118C19.0658 11.2838 20.6011 11.2838 22.0841 11.118C22.4445 11.0777 22.7287 10.7924 22.7692 10.4458C22.9464 8.93153 22.9464 7.40178 22.7692 5.88752C22.7287 5.54095 22.4445 5.2556 22.0841 5.21532ZM17.3884 3.47615C19.0006 3.29595 20.6663 3.29595 22.2785 3.47615C23.4345 3.60535 24.3707 4.51533 24.5074 5.68423C24.7003 7.33356 24.7003 8.99976 24.5074 10.6491C24.3707 11.818 23.4345 12.728 22.2785 12.8572C20.6663 13.0374 19.0006 13.0374 17.3884 12.8572C16.2324 12.728 15.2962 11.818 15.1595 10.6491C14.9666 8.99976 14.9666 7.33356 15.1595 5.68423C15.2962 4.51533 16.2324 3.60535 17.3884 3.47615Z" fill="white"/>
<path fill-rule="evenodd" clip-rule="evenodd" d="M22.0841 16.882C20.6011 16.7162 19.0658 16.7162 17.5827 16.882C17.2224 16.9223 16.9382 17.2076 16.8976 17.5542C16.7205 19.0685 16.7205 20.5982 16.8976 22.1125C16.9382 22.459 17.2224 22.7444 17.5827 22.7847C19.0658 22.9504 20.6011 22.9504 22.0841 22.7847C22.4445 22.7444 22.7287 22.459 22.7692 22.1125C22.9464 20.5982 22.9464 19.0685 22.7692 17.5542C22.7287 17.2076 22.4445 16.9223 22.0841 16.882ZM17.3884 15.1428C19.0006 14.9626 20.6663 14.9626 22.2785 15.1428C23.4345 15.272 24.3707 16.182 24.5074 17.3509C24.7003 19.0002 24.7003 20.6664 24.5074 22.3158C24.3707 23.4846 23.4345 24.3946 22.2785 24.5238C20.6663 24.704 19.0006 24.704 17.3884 24.5238C16.2324 24.3946 15.2962 23.4846 15.1595 22.3158C14.9666 20.6664 14.9666 19.0002 15.1595 17.3509C15.2962 16.182 16.2324 15.272 17.3884 15.1428Z" fill="white"/>
</svg>
