<svg width="28" height="29" viewBox="0 0 28 29" fill="none" xmlns="http://www.w3.org/2000/svg">
<path fill-rule="evenodd" clip-rule="evenodd" d="M4.1117 10.7021C4.52509 5.50789 8.71593 1.51044 13.748 1.51044H14.2519C19.284 1.51044 23.4748 5.50789 23.8882 10.7021C24.1103 13.4923 23.2781 16.2628 21.567 18.4302L15.9751 25.5132C14.9543 26.8062 13.0456 26.8063 12.0248 25.5132L6.43291 18.4302C4.7218 16.2629 3.88964 13.4923 4.1117 10.7021ZM13.748 3.32294C9.62669 3.32294 6.19435 6.59689 5.85579 10.8509C5.67097 13.1732 6.36356 15.4791 7.78766 17.2829L13.3796 24.3659C13.7002 24.772 14.2997 24.772 14.6203 24.3659L20.2122 17.2829C21.6363 15.4791 22.3289 13.1732 22.1441 10.8509C21.8055 6.59689 18.3732 3.32294 14.2519 3.32294H13.748Z" fill="white"/>
<path d="M15.1666 19.3334C15.1666 20.0007 14.6443 20.5417 13.9999 20.5417C13.3556 20.5417 12.8333 20.0007 12.8333 19.3334C12.8333 18.666 13.3556 18.125 13.9999 18.125C14.6443 18.125 15.1666 18.666 15.1666 19.3334Z" fill="white"/>
<path fill-rule="evenodd" clip-rule="evenodd" d="M13.9999 9.3646C12.8954 9.3646 11.9583 10.3257 11.9583 11.5655C11.9583 12.066 11.5665 12.4717 11.0833 12.4717C10.6 12.4717 10.2083 12.066 10.2083 11.5655C10.2083 9.3732 11.8828 7.5521 13.9999 7.5521C16.1171 7.5521 17.7916 9.3732 17.7916 11.5655C17.7916 13.2946 16.7553 14.7838 15.281 15.3438C15.1358 15.399 15.0177 15.4834 14.9464 15.5656C14.8797 15.6425 14.8749 15.6895 14.8749 15.7084C14.8749 16.2089 14.4832 16.6146 13.9999 16.6146C13.5167 16.6146 13.1249 16.2089 13.1249 15.7084C13.1249 14.5923 13.9923 13.9028 14.6784 13.6422C15.4618 13.3446 16.0416 12.5361 16.0416 11.5655C16.0416 10.3257 15.1045 9.3646 13.9999 9.3646Z" fill="white"/>
</svg>
