<svg width="402" height="124" viewBox="0 0 402 124" fill="none" xmlns="http://www.w3.org/2000/svg">
<path d="M7.35327 1.29932V112.628" stroke="#F0F0F0"/>
<path d="M20.9497 1.29932V112.628" stroke="#F0F0F0"/>
<path d="M34.8237 1.29932V112.628" stroke="#F0F0F0"/>
<path d="M48.4202 1.29932V112.628" stroke="#F0F0F0"/>
<path d="M62.0168 1.29932V112.628" stroke="#F0F0F0"/>
<path d="M75.8907 1.29932V112.628" stroke="#F0F0F0"/>
<path d="M89.4873 1.29932V112.628" stroke="#F0F0F0"/>
<path d="M103.084 1.29932V112.628" stroke="#F0F0F0"/>
<path d="M116.68 1.29932V112.628" stroke="#F0F0F0"/>
<path d="M130.554 1.29932V112.628" stroke="#F0F0F0"/>
<path d="M144.151 1.29932V112.628" stroke="#F0F0F0"/>
<path d="M157.747 1.29932V112.628" stroke="#F0F0F0"/>
<path d="M171.621 1.29932V112.628" stroke="#F0F0F0"/>
<path d="M185.218 1.29932V112.628" stroke="#F0F0F0"/>
<path d="M198.814 1.29932V112.628" stroke="#F0F0F0"/>
<path d="M7.49194 112.927H205.89" stroke="#F0F0F0"/>
<path d="M7.49194 90.781H205.89" stroke="#F0F0F0"/>
<path d="M7.49194 68.635H205.89" stroke="#F0F0F0"/>
<path d="M7.49194 45.8905H205.89" stroke="#F0F0F0"/>
<path d="M7.49194 23.7445H205.89" stroke="#F0F0F0"/>
<path d="M7.49194 1H205.89" stroke="#F0F0F0"/>
<path d="M7.49194 112.927H205.89" stroke="#F0F0F0"/>
<path d="M7.35327 1.29932V112.628" stroke="#F0F0F0"/>
<path d="M169 33C168.204 33 167.442 32.7367 166.879 32.268C166.316 31.7993 166 31.1636 166 30.5006C166 29.8377 166.316 29.2018 166.878 28.7329C167.44 28.264 168.203 28.0003 168.998 28C169.794 27.9997 170.557 28.2627 171.12 28.7311C171.683 29.1996 171.999 29.8352 172 30.4981C172.001 31.1611 171.685 31.797 171.123 32.2662C170.561 32.7354 169.799 32.9993 169.003 33L169 33Z" fill="#602BF8"/>
<path d="M114 88C113.204 88 112.442 87.7367 111.879 87.268C111.316 86.7993 111 86.1636 111 85.5006C111 84.8377 111.316 84.2018 111.878 83.7329C112.44 83.264 113.203 83.0003 113.998 83C114.794 82.9997 115.557 83.2627 116.12 83.7311C116.683 84.1996 116.999 84.8352 117 85.4981C117.001 86.1611 116.685 86.797 116.123 87.2662C115.561 87.7354 114.799 87.9993 114.003 88L114 88Z" fill="#602BF8"/>
<path d="M169 33C168.204 33 167.442 32.7367 166.879 32.268C166.316 31.7993 166 31.1636 166 30.5006C166 29.8377 166.316 29.2018 166.878 28.7329C167.44 28.264 168.203 28.0003 168.998 28C169.794 27.9997 170.557 28.2627 171.12 28.7311C171.683 29.1996 171.999 29.8352 172 30.4981C172.001 31.1611 171.685 31.797 171.123 32.2662C170.561 32.7354 169.799 32.9993 169.003 33L169 33Z" fill="#602BF8"/>
<path d="M38 79C37.2045 79 36.4415 78.7367 35.879 78.268C35.3164 77.7993 35.0002 77.1636 35 76.5006C34.9998 75.8377 35.3156 75.2018 35.8779 74.7329C36.4402 74.264 37.203 74.0003 37.9985 74C38.794 73.9997 39.5571 74.2627 40.12 74.7311C40.6829 75.1996 40.9994 75.8352 41 76.4981C41.0006 77.1611 40.6852 77.797 40.1232 78.2662C39.5611 78.7354 38.7985 78.9993 38.003 79L38 79Z" fill="#602BF8"/>
<line x1="354.066" y1="77.5044" x2="401.18" y2="83.7797" stroke="black"/>
<path d="M76 51C75.2045 51 74.4415 50.7367 73.879 50.268C73.3164 49.7993 73.0002 49.1636 73 48.5006C72.9998 47.8377 73.3156 47.2018 73.8779 46.7329C74.4402 46.264 75.203 46.0003 75.9985 46C76.794 45.9997 77.5571 46.2627 78.12 46.7311C78.6829 47.1996 78.9994 47.8352 79 48.4981C79.0006 49.1611 78.6852 49.797 78.1232 50.2662C77.5611 50.7354 76.7985 50.9993 76.003 51L76 51Z" fill="#602BF8"/>
<line x1="37.7104" y1="75.5924" x2="75.7104" y2="48.5924" stroke="black"/>
<line x1="78.3536" y1="49.6464" x2="112.354" y2="83.6464" stroke="black"/>
<line x1="115.65" y1="83.643" x2="167.65" y2="32.643" stroke="black"/>
</svg>
