<svg width="258" height="124" viewBox="0 0 258 124" fill="none" xmlns="http://www.w3.org/2000/svg">
<path d="M1.0752 115.811C1.0752 115.811 15.0416 122.165 24.3525 122.165C33.6634 122.165 38.3188 26.8549 47.6298 26.8549C56.9407 26.8549 61.5961 39.5629 70.907 39.5629C80.218 39.5629 84.8734 14.147 94.1843 14.147C103.495 14.147 108.151 109.457 117.462 109.457C126.773 109.457 131.428 99.2902 140.739 77.6867C150.05 56.0832 154.705 1.43903 164.016 1.43903C173.327 1.43903 177.983 103.103 187.293 109.457C196.604 115.811 201.26 115.811 210.571 115.811C219.882 115.811 224.537 90.3947 233.848 77.6867C243.159 64.9788 257.125 52.2708 257.125 52.2708" stroke="#38A48C" stroke-width="2"/>
</svg>
