<svg width="29" height="29" viewBox="0 0 29 29" fill="none" xmlns="http://www.w3.org/2000/svg">
<path fill-rule="evenodd" clip-rule="evenodd" d="M19.831 5.53741C20.4984 6.01903 20.9696 6.75762 21.0987 7.61614C21.1439 7.91699 21.1846 8.21835 21.2208 8.52011C21.501 11.123 21.4885 14.1248 21.0987 16.7172C20.883 18.1516 19.7123 19.2512 18.2672 19.3768L16.757 19.5081C13.6079 19.7818 10.4411 19.7818 7.29204 19.5081L5.7818 19.3768C4.33674 19.2512 3.16607 18.1516 2.95037 16.7172C2.56054 14.1248 2.54806 11.1228 2.8282 8.51995C2.86441 8.21824 2.90513 7.91694 2.95037 7.61614C3.07929 6.75881 3.54936 6.02107 4.21527 5.53941L4.21451 5.53267L4.26176 5.50642C4.43427 5.38635 4.61935 5.28322 4.81458 5.1993L9.23053 2.746C10.9672 1.7812 13.0788 1.7812 14.8154 2.746L19.2212 5.19363C19.4258 5.28046 19.6193 5.38835 19.7991 5.51471L19.8315 5.53271L19.831 5.53741ZM18.9901 6.78117L14.087 4.05723C12.8034 3.34412 11.2426 3.34412 9.95899 4.05723L5.06733 6.77482C4.73385 7.02644 4.49925 7.40319 4.43369 7.8392C4.422 7.91697 4.41062 7.99477 4.39956 8.07261L9.96049 11.162C11.2441 11.8751 12.8049 11.8751 14.0885 11.162L19.6495 8.07257C19.6384 7.99475 19.627 7.91695 19.6153 7.8392C19.5503 7.40684 19.3191 7.03275 18.9901 6.78117ZM19.73 15.6472C19.9684 13.6682 20.0027 11.6708 19.833 9.68655L14.8169 12.4733C13.0803 13.4381 10.9687 13.4381 9.23203 12.4733L4.21601 9.68659C4.04628 11.6709 4.08062 13.6682 4.31902 15.6472C4.35308 15.9299 4.3913 16.2122 4.43369 16.4941C4.45769 16.6537 4.50432 16.8053 4.57017 16.9458C4.81327 17.4644 5.31815 17.8308 5.91171 17.8824L7.42194 18.0137C10.4845 18.28 13.5645 18.28 16.6271 18.0137L18.1373 17.8825C18.6088 17.8415 19.0243 17.6019 19.2971 17.2451C19.4608 17.0311 19.5731 16.7749 19.6153 16.4941C19.6577 16.2122 19.6959 15.9299 19.73 15.6472Z" fill="white"/>
</svg>
