<svg width="28" height="28" viewBox="0 0 28 28" fill="none" xmlns="http://www.w3.org/2000/svg">
<path fill-rule="evenodd" clip-rule="evenodd" d="M14 13.5911C13.1946 13.5911 12.5417 14.244 12.5417 15.0494C12.5417 15.8548 13.1946 16.5077 14 16.5077C14.8054 16.5077 15.4583 15.8548 15.4583 15.0494C15.4583 14.244 14.8054 13.5911 14 13.5911ZM10.7917 15.0494C10.7917 13.2775 12.2281 11.8411 14 11.8411C15.7719 11.8411 17.2083 13.2775 17.2083 15.0494C17.2083 16.8213 15.7719 18.2577 14 18.2577C12.2281 18.2577 10.7917 16.8213 10.7917 15.0494Z" fill="white"/>
<path fill-rule="evenodd" clip-rule="evenodd" d="M14 8.92439C12.7886 8.92439 11.6044 9.28361 10.5971 9.95664C9.58988 10.6297 8.80483 11.5863 8.34124 12.7055C7.87765 13.8246 7.75636 15.0562 7.99269 16.2443C8.22903 17.4324 8.81238 18.5238 9.66897 19.3804C10.0107 19.7221 10.0107 20.2761 9.66897 20.6179C9.32727 20.9596 8.77325 20.9596 8.43154 20.6179C7.3302 19.5165 6.58018 18.1133 6.27632 16.5857C5.97246 15.0581 6.12841 13.4747 6.72445 12.0358C7.32049 10.5968 8.32985 9.36688 9.62489 8.50156C10.9199 7.63625 12.4425 7.17439 14 7.17439C15.5575 7.17439 17.0801 7.63625 18.3751 8.50156C19.6702 9.36688 20.6795 10.5968 21.2756 12.0358C21.8716 13.4747 22.0275 15.0581 21.7237 16.5857C21.4198 18.1133 20.6698 19.5165 19.5685 20.6179C19.2268 20.9596 18.6727 20.9596 18.331 20.6179C17.9893 20.2761 17.9893 19.7221 18.331 19.3804C19.1876 18.5238 19.771 17.4324 20.0073 16.2443C20.2436 15.0562 20.1224 13.8246 19.6588 12.7055C19.1952 11.5863 18.4101 10.6297 17.4029 9.95664C16.3956 9.28361 15.2114 8.92439 14 8.92439Z" fill="white"/>
<path fill-rule="evenodd" clip-rule="evenodd" d="M14.0001 4.375C11.8889 4.375 9.82511 5.00104 8.06971 6.17396C6.31431 7.34688 4.94615 9.01399 4.13823 10.9645C3.33031 12.915 3.11892 15.0612 3.53079 17.1319C3.94267 19.2025 4.95931 21.1045 6.45215 22.5973C6.79386 22.9391 6.79386 23.4931 6.45215 23.8348C6.11044 24.1765 5.55642 24.1765 5.21471 23.8348C3.47713 22.0972 2.29382 19.8834 1.81442 17.4733C1.33502 15.0632 1.58107 12.5651 2.52144 10.2948C3.46181 8.02453 5.05428 6.0841 7.09746 4.71889C9.14065 3.35368 11.5428 2.625 14.0001 2.625C16.4574 2.625 18.8595 3.35368 20.9027 4.71889C22.9459 6.0841 24.5384 8.02453 25.4787 10.2948C26.4191 12.5651 26.6652 15.0632 26.1858 17.4733C25.7064 19.8834 24.5231 22.0972 22.7855 23.8348C22.4438 24.1765 21.8897 24.1765 21.548 23.8348C21.2063 23.4931 21.2063 22.9391 21.548 22.5973C23.0409 21.1045 24.0575 19.2025 24.4694 17.1319C24.8813 15.0612 24.6699 12.915 23.862 10.9645C23.054 9.01399 21.6859 7.34688 19.9305 6.17396C18.1751 5.00104 16.1113 4.375 14.0001 4.375Z" fill="white"/>
</svg>
