<svg width="28" height="28" viewBox="0 0 28 28" fill="none" xmlns="http://www.w3.org/2000/svg">
<path d="M15.75 11.375C15.75 10.8917 15.3582 10.5 14.875 10.5H7.875C7.39175 10.5 7 10.8917 7 11.375C7 11.8582 7.39175 12.25 7.875 12.25H14.875C15.3582 12.25 15.75 11.8582 15.75 11.375Z" fill="white"/>
<path d="M14.5833 14.875C14.5833 14.3917 14.1916 14 13.7083 14H7.875C7.39175 14 7 14.3917 7 14.875C7 15.3582 7.39175 15.75 7.875 15.75H13.7083C14.1916 15.75 14.5833 15.3582 14.5833 14.875Z" fill="white"/>
<path d="M14.875 17.5C15.3582 17.5 15.75 17.8917 15.75 18.375C15.75 18.8582 15.3582 19.25 14.875 19.25H7.875C7.39175 19.25 7 18.8582 7 18.375C7 17.8917 7.39175 17.5 7.875 17.5H14.875Z" fill="white"/>
<path fill-rule="evenodd" clip-rule="evenodd" d="M7 25.375H22.1667C23.9386 25.375 25.375 23.9386 25.375 22.1667V15.75C25.375 15.2667 24.9832 14.875 24.5 14.875H20.7083V5.76705C20.7083 4.10641 18.8313 3.14045 17.48 4.10568L17.2757 4.25155C16.3652 4.90196 15.1318 4.89977 14.2169 4.24631C12.6957 3.15976 10.6376 3.15976 9.11642 4.24631C8.20157 4.89977 6.96815 4.90196 6.05758 4.25155L5.85336 4.10568C4.50205 3.14045 2.625 4.10642 2.625 5.76705V21C2.625 23.4162 4.58375 25.375 7 25.375ZM10.1336 5.67035C11.0463 5.01841 12.287 5.01841 13.1997 5.67035C14.7188 6.75537 16.7696 6.76366 18.2929 5.67558L18.4971 5.52971C18.6902 5.39182 18.9583 5.52982 18.9583 5.76705V22.1667C18.9583 22.6918 19.0845 23.1875 19.3082 23.625H7C5.55025 23.625 4.375 22.4497 4.375 21V5.76705C4.375 5.52982 4.64315 5.39182 4.83619 5.52971L5.04042 5.67558C6.56373 6.76366 8.61455 6.75537 10.1336 5.67035ZM20.7083 22.1667V16.625H23.625V22.1667C23.625 22.9721 22.9721 23.625 22.1667 23.625C21.3612 23.625 20.7083 22.9721 20.7083 22.1667Z" fill="white"/>
</svg>
