<svg width="489" height="138" viewBox="0 0 489 138" fill="none" xmlns="http://www.w3.org/2000/svg">
<g filter="url(#filter0_di_2476_1699)">
<path d="M361.449 38C361.449 30.268 367.717 24 375.449 24H439C446.732 24 453 30.268 453 38V45.188C453 52.92 446.732 59.188 439 59.188H375.449C367.717 59.188 361.449 52.92 361.449 45.188V38Z" fill="#FFC9C9"/>
<path d="M24 83.2331C24 74.164 31.357 66.812 40.4323 66.812H285.743C294.818 66.812 302.175 74.164 302.175 83.2331V85.579C302.175 94.648 294.818 102 285.743 102H40.4323C31.357 102 24 94.648 24 85.579V83.2331Z" fill="#FFC9C9"/>
</g>
<defs>
<filter id="filter0_di_2476_1699" x="0" y="0" width="489" height="138" filterUnits="userSpaceOnUse" color-interpolation-filters="sRGB">
<feFlood flood-opacity="0" result="BackgroundImageFix"/>
<feColorMatrix in="SourceAlpha" type="matrix" values="0 0 0 0 0 0 0 0 0 0 0 0 0 0 0 0 0 0 127 0" result="hardAlpha"/>
<feOffset dx="6" dy="6"/>
<feGaussianBlur stdDeviation="15"/>
<feComposite in2="hardAlpha" operator="out"/>
<feColorMatrix type="matrix" values="0 0 0 0 0.489983 0 0 0 0 0.601358 0 0 0 0 0.704167 0 0 0 0.2 0"/>
<feBlend mode="normal" in2="BackgroundImageFix" result="effect1_dropShadow_2476_1699"/>
<feBlend mode="normal" in="SourceGraphic" in2="effect1_dropShadow_2476_1699" result="shape"/>
<feColorMatrix in="SourceAlpha" type="matrix" values="0 0 0 0 0 0 0 0 0 0 0 0 0 0 0 0 0 0 127 0" result="hardAlpha"/>
<feOffset dx="2" dy="2"/>
<feGaussianBlur stdDeviation="2"/>
<feComposite in2="hardAlpha" operator="arithmetic" k2="-1" k3="1"/>
<feColorMatrix type="matrix" values="0 0 0 0 0.339062 0 0 0 0 0.56575 0 0 0 0 0.775 0 0 0 0.11 0"/>
<feBlend mode="normal" in2="shape" result="effect2_innerShadow_2476_1699"/>
</filter>
</defs>
</svg>
