<svg width="488" height="138" viewBox="0 0 488 138" fill="none" xmlns="http://www.w3.org/2000/svg">
<g filter="url(#filter0_di_2476_1712)">
<path d="M360.662 38C360.662 30.268 366.93 24 374.662 24H438C445.732 24 452 30.268 452 38V45.188C452 52.92 445.732 59.188 438 59.188H374.662C366.93 59.188 360.662 52.92 360.662 45.188V38Z" fill="#FFC9C9"/>
<path d="M24 83.2331C24 74.164 31.3398 66.812 40.394 66.812H285.133C294.187 66.812 301.527 74.164 301.527 83.2331V85.579C301.527 94.648 294.187 102 285.133 102H40.394C31.3398 102 24 94.648 24 85.579V83.2331Z" fill="#FFC9C9"/>
</g>
<defs>
<filter id="filter0_di_2476_1712" x="0" y="0" width="488" height="138" filterUnits="userSpaceOnUse" color-interpolation-filters="sRGB">
<feFlood flood-opacity="0" result="BackgroundImageFix"/>
<feColorMatrix in="SourceAlpha" type="matrix" values="0 0 0 0 0 0 0 0 0 0 0 0 0 0 0 0 0 0 127 0" result="hardAlpha"/>
<feOffset dx="6" dy="6"/>
<feGaussianBlur stdDeviation="15"/>
<feComposite in2="hardAlpha" operator="out"/>
<feColorMatrix type="matrix" values="0 0 0 0 0.489983 0 0 0 0 0.601358 0 0 0 0 0.704167 0 0 0 0.2 0"/>
<feBlend mode="normal" in2="BackgroundImageFix" result="effect1_dropShadow_2476_1712"/>
<feBlend mode="normal" in="SourceGraphic" in2="effect1_dropShadow_2476_1712" result="shape"/>
<feColorMatrix in="SourceAlpha" type="matrix" values="0 0 0 0 0 0 0 0 0 0 0 0 0 0 0 0 0 0 127 0" result="hardAlpha"/>
<feOffset dx="2" dy="2"/>
<feGaussianBlur stdDeviation="2"/>
<feComposite in2="hardAlpha" operator="arithmetic" k2="-1" k3="1"/>
<feColorMatrix type="matrix" values="0 0 0 0 0.339062 0 0 0 0 0.56575 0 0 0 0 0.775 0 0 0 0.11 0"/>
<feBlend mode="normal" in2="shape" result="effect2_innerShadow_2476_1712"/>
</filter>
</defs>
</svg>
